ISO-10303-21;
HEADER;
/* Generated by software containing ST-Developer
 * from STEP Tools, Inc. (www.steptools.com) 
 */
/* OPTION: using custom renumber hook */

FILE_DESCRIPTION(
/* description */ ('STEP AP242 Edition 2',
'CAx-IF Rec.Pracs.---Representation and Presentation of Product Manufa
cturing Information (PMI)---4.0---2014-10-13',
'CAx-IF Rec.Pracs.---3D Tessellated Geometry---0.4---2014-09-14','2;1',
'CAx-IF Rec.Pracs.---User Defined Attributes---1.5---2016-08-15'),
/* implementation_level */ '2;1');

FILE_NAME(
/* name */ 'Part Studio 1',
/* time_stamp */ '2026-09-04T04:12:43Z',
/* author */ (''),
/* organization */ (''),
/* preprocessor_version */ 'ST-DEVELOPER v20',
/* originating_system */ 'ONSHAPE BY PTC INC, 1.220',
/* authorisation */ '  ');

FILE_SCHEMA (('AP242_MANAGED_MODEL_BASED_3D_ENGINEERING_MIM_LF { 1 0 10303 442 3 1 4 }'));
ENDSEC;

DATA;
#10=CYLINDRICAL_SURFACE('',#1242,0.003);
#11=B_SPLINE_CURVE_WITH_KNOTS('',3,(#1772,#1773,#1774,#1775),
 .UNSPECIFIED.,.F.,.F.,(4,4),(0.,1.),.PIECEWISE_BEZIER_KNOTS.);
#12=B_SPLINE_CURVE_WITH_KNOTS('',3,(#1777,#1778,#1779,#1780),
 .UNSPECIFIED.,.F.,.F.,(4,4),(0.,1.),.PIECEWISE_BEZIER_KNOTS.);
#13=B_SPLINE_CURVE_WITH_KNOTS('',3,(#1783,#1784,#1785,#1786),
 .UNSPECIFIED.,.F.,.F.,(4,4),(0.,1.),.PIECEWISE_BEZIER_KNOTS.);
#14=B_SPLINE_CURVE_WITH_KNOTS('',3,(#1787,#1788,#1789,#1790),
 .UNSPECIFIED.,.F.,.F.,(4,4),(0.,1.),.PIECEWISE_BEZIER_KNOTS.);
#15=B_SPLINE_SURFACE_WITH_KNOTS('',3,1,((#1764,#1765),(#1766,#1767),(#1768,
#1769),(#1770,#1771)),.SURF_OF_LINEAR_EXTRUSION.,.F.,.F.,.F.,(4,4),(2,2),
(0.,1.),(0.,1.),.PIECEWISE_BEZIER_KNOTS.);
#16=CIRCLE('',#1228,0.003);
#17=CIRCLE('',#1230,0.003);
#18=SHAPE_REPRESENTATION_RELATIONSHIP('','',#1202,#20);
#19=SHAPE_REPRESENTATION_RELATIONSHIP('','',#1203,#21);
#20=ADVANCED_BREP_SHAPE_REPRESENTATION('',(#1198),#1900);
#21=ADVANCED_BREP_SHAPE_REPRESENTATION('',(#1199),#1901);
#22=ORIENTED_EDGE('',*,*,#338,.T.);
#23=ORIENTED_EDGE('',*,*,#339,.F.);
#24=ORIENTED_EDGE('',*,*,#340,.F.);
#25=ORIENTED_EDGE('',*,*,#341,.T.);
#26=ORIENTED_EDGE('',*,*,#340,.T.);
#27=ORIENTED_EDGE('',*,*,#342,.T.);
#28=ORIENTED_EDGE('',*,*,#343,.F.);
#29=ORIENTED_EDGE('',*,*,#344,.F.);
#30=ORIENTED_EDGE('',*,*,#343,.T.);
#31=ORIENTED_EDGE('',*,*,#345,.T.);
#32=ORIENTED_EDGE('',*,*,#346,.F.);
#33=ORIENTED_EDGE('',*,*,#347,.F.);
#34=ORIENTED_EDGE('',*,*,#348,.T.);
#35=ORIENTED_EDGE('',*,*,#349,.F.);
#36=ORIENTED_EDGE('',*,*,#350,.F.);
#37=ORIENTED_EDGE('',*,*,#351,.T.);
#38=ORIENTED_EDGE('',*,*,#350,.T.);
#39=ORIENTED_EDGE('',*,*,#352,.F.);
#40=ORIENTED_EDGE('',*,*,#353,.F.);
#41=ORIENTED_EDGE('',*,*,#354,.T.);
#42=ORIENTED_EDGE('',*,*,#353,.T.);
#43=ORIENTED_EDGE('',*,*,#355,.T.);
#44=ORIENTED_EDGE('',*,*,#356,.F.);
#45=ORIENTED_EDGE('',*,*,#357,.F.);
#46=ORIENTED_EDGE('',*,*,#356,.T.);
#47=ORIENTED_EDGE('',*,*,#358,.T.);
#48=ORIENTED_EDGE('',*,*,#348,.F.);
#49=ORIENTED_EDGE('',*,*,#359,.F.);
#50=ORIENTED_EDGE('',*,*,#346,.T.);
#51=ORIENTED_EDGE('',*,*,#360,.F.);
#52=ORIENTED_EDGE('',*,*,#338,.F.);
#53=ORIENTED_EDGE('',*,*,#361,.T.);
#54=ORIENTED_EDGE('',*,*,#349,.T.);
#55=ORIENTED_EDGE('',*,*,#358,.F.);
#56=ORIENTED_EDGE('',*,*,#355,.F.);
#57=ORIENTED_EDGE('',*,*,#352,.T.);
#58=ORIENTED_EDGE('',*,*,#339,.T.);
#59=ORIENTED_EDGE('',*,*,#360,.T.);
#60=ORIENTED_EDGE('',*,*,#345,.F.);
#61=ORIENTED_EDGE('',*,*,#342,.F.);
#62=ORIENTED_EDGE('',*,*,#362,.F.);
#63=ORIENTED_EDGE('',*,*,#363,.F.);
#64=ORIENTED_EDGE('',*,*,#364,.T.);
#65=ORIENTED_EDGE('',*,*,#365,.T.);
#66=ORIENTED_EDGE('',*,*,#366,.T.);
#67=ORIENTED_EDGE('',*,*,#367,.F.);
#68=ORIENTED_EDGE('',*,*,#368,.F.);
#69=ORIENTED_EDGE('',*,*,#363,.T.);
#70=ORIENTED_EDGE('',*,*,#369,.T.);
#71=ORIENTED_EDGE('',*,*,#370,.F.);
#72=ORIENTED_EDGE('',*,*,#371,.F.);
#73=ORIENTED_EDGE('',*,*,#367,.T.);
#74=ORIENTED_EDGE('',*,*,#372,.F.);
#75=ORIENTED_EDGE('',*,*,#373,.F.);
#76=ORIENTED_EDGE('',*,*,#374,.T.);
#77=ORIENTED_EDGE('',*,*,#375,.T.);
#78=ORIENTED_EDGE('',*,*,#376,.T.);
#79=ORIENTED_EDGE('',*,*,#377,.F.);
#80=ORIENTED_EDGE('',*,*,#378,.F.);
#81=ORIENTED_EDGE('',*,*,#373,.T.);
#82=ORIENTED_EDGE('',*,*,#379,.T.);
#83=ORIENTED_EDGE('',*,*,#380,.F.);
#84=ORIENTED_EDGE('',*,*,#381,.F.);
#85=ORIENTED_EDGE('',*,*,#377,.T.);
#86=ORIENTED_EDGE('',*,*,#382,.F.);
#87=ORIENTED_EDGE('',*,*,#375,.F.);
#88=ORIENTED_EDGE('',*,*,#383,.T.);
#89=ORIENTED_EDGE('',*,*,#380,.T.);
#90=ORIENTED_EDGE('',*,*,#384,.F.);
#91=ORIENTED_EDGE('',*,*,#365,.F.);
#92=ORIENTED_EDGE('',*,*,#385,.T.);
#93=ORIENTED_EDGE('',*,*,#370,.T.);
#94=ORIENTED_EDGE('',*,*,#351,.F.);
#95=ORIENTED_EDGE('',*,*,#354,.F.);
#96=ORIENTED_EDGE('',*,*,#357,.T.);
#97=ORIENTED_EDGE('',*,*,#359,.T.);
#98=ORIENTED_EDGE('',*,*,#374,.F.);
#99=ORIENTED_EDGE('',*,*,#378,.T.);
#100=ORIENTED_EDGE('',*,*,#381,.T.);
#101=ORIENTED_EDGE('',*,*,#383,.F.);
#102=ORIENTED_EDGE('',*,*,#364,.F.);
#103=ORIENTED_EDGE('',*,*,#368,.T.);
#104=ORIENTED_EDGE('',*,*,#371,.T.);
#105=ORIENTED_EDGE('',*,*,#385,.F.);
#106=ORIENTED_EDGE('',*,*,#341,.F.);
#107=ORIENTED_EDGE('',*,*,#344,.T.);
#108=ORIENTED_EDGE('',*,*,#347,.T.);
#109=ORIENTED_EDGE('',*,*,#361,.F.);
#110=ORIENTED_EDGE('',*,*,#372,.T.);
#111=ORIENTED_EDGE('',*,*,#382,.T.);
#112=ORIENTED_EDGE('',*,*,#379,.F.);
#113=ORIENTED_EDGE('',*,*,#376,.F.);
#114=ORIENTED_EDGE('',*,*,#362,.T.);
#115=ORIENTED_EDGE('',*,*,#384,.T.);
#116=ORIENTED_EDGE('',*,*,#369,.F.);
#117=ORIENTED_EDGE('',*,*,#366,.F.);
#118=ORIENTED_EDGE('',*,*,#386,.F.);
#119=ORIENTED_EDGE('',*,*,#387,.T.);
#120=ORIENTED_EDGE('',*,*,#388,.T.);
#121=ORIENTED_EDGE('',*,*,#389,.F.);
#122=ORIENTED_EDGE('',*,*,#390,.T.);
#123=ORIENTED_EDGE('',*,*,#391,.F.);
#124=ORIENTED_EDGE('',*,*,#392,.F.);
#125=ORIENTED_EDGE('',*,*,#393,.T.);
#126=ORIENTED_EDGE('',*,*,#394,.F.);
#127=ORIENTED_EDGE('',*,*,#395,.F.);
#128=ORIENTED_EDGE('',*,*,#396,.F.);
#129=ORIENTED_EDGE('',*,*,#397,.T.);
#130=ORIENTED_EDGE('',*,*,#398,.T.);
#131=ORIENTED_EDGE('',*,*,#399,.T.);
#132=ORIENTED_EDGE('',*,*,#400,.F.);
#133=ORIENTED_EDGE('',*,*,#401,.F.);
#134=ORIENTED_EDGE('',*,*,#402,.F.);
#135=ORIENTED_EDGE('',*,*,#403,.T.);
#136=ORIENTED_EDGE('',*,*,#394,.T.);
#137=ORIENTED_EDGE('',*,*,#404,.F.);
#138=ORIENTED_EDGE('',*,*,#405,.F.);
#139=ORIENTED_EDGE('',*,*,#406,.F.);
#140=ORIENTED_EDGE('',*,*,#407,.F.);
#141=ORIENTED_EDGE('',*,*,#386,.T.);
#142=ORIENTED_EDGE('',*,*,#408,.T.);
#143=ORIENTED_EDGE('',*,*,#409,.F.);
#144=ORIENTED_EDGE('',*,*,#410,.F.);
#145=ORIENTED_EDGE('',*,*,#411,.T.);
#146=ORIENTED_EDGE('',*,*,#409,.T.);
#147=ORIENTED_EDGE('',*,*,#412,.F.);
#148=ORIENTED_EDGE('',*,*,#413,.F.);
#149=ORIENTED_EDGE('',*,*,#414,.F.);
#150=ORIENTED_EDGE('',*,*,#415,.T.);
#151=ORIENTED_EDGE('',*,*,#416,.F.);
#152=ORIENTED_EDGE('',*,*,#405,.T.);
#153=ORIENTED_EDGE('',*,*,#417,.T.);
#154=ORIENTED_EDGE('',*,*,#418,.T.);
#155=ORIENTED_EDGE('',*,*,#419,.T.);
#156=ORIENTED_EDGE('',*,*,#420,.F.);
#157=ORIENTED_EDGE('',*,*,#421,.T.);
#158=ORIENTED_EDGE('',*,*,#422,.T.);
#159=ORIENTED_EDGE('',*,*,#423,.F.);
#160=ORIENTED_EDGE('',*,*,#424,.T.);
#161=ORIENTED_EDGE('',*,*,#425,.T.);
#162=ORIENTED_EDGE('',*,*,#426,.F.);
#163=ORIENTED_EDGE('',*,*,#427,.F.);
#164=ORIENTED_EDGE('',*,*,#428,.F.);
#165=ORIENTED_EDGE('',*,*,#429,.T.);
#166=ORIENTED_EDGE('',*,*,#430,.T.);
#167=ORIENTED_EDGE('',*,*,#431,.F.);
#168=ORIENTED_EDGE('',*,*,#432,.F.);
#169=ORIENTED_EDGE('',*,*,#433,.T.);
#170=ORIENTED_EDGE('',*,*,#434,.T.);
#171=ORIENTED_EDGE('',*,*,#435,.F.);
#172=ORIENTED_EDGE('',*,*,#436,.T.);
#173=ORIENTED_EDGE('',*,*,#437,.T.);
#174=ORIENTED_EDGE('',*,*,#438,.F.);
#175=ORIENTED_EDGE('',*,*,#439,.F.);
#176=ORIENTED_EDGE('',*,*,#440,.F.);
#177=ORIENTED_EDGE('',*,*,#431,.T.);
#178=ORIENTED_EDGE('',*,*,#441,.T.);
#179=ORIENTED_EDGE('',*,*,#442,.F.);
#180=ORIENTED_EDGE('',*,*,#443,.F.);
#181=ORIENTED_EDGE('',*,*,#419,.F.);
#182=ORIENTED_EDGE('',*,*,#444,.T.);
#183=ORIENTED_EDGE('',*,*,#439,.T.);
#184=ORIENTED_EDGE('',*,*,#445,.F.);
#185=ORIENTED_EDGE('',*,*,#437,.F.);
#186=ORIENTED_EDGE('',*,*,#446,.T.);
#187=ORIENTED_EDGE('',*,*,#414,.T.);
#188=ORIENTED_EDGE('',*,*,#447,.F.);
#189=ORIENTED_EDGE('',*,*,#415,.F.);
#190=ORIENTED_EDGE('',*,*,#446,.F.);
#191=ORIENTED_EDGE('',*,*,#436,.F.);
#192=ORIENTED_EDGE('',*,*,#444,.F.);
#193=ORIENTED_EDGE('',*,*,#418,.F.);
#194=ORIENTED_EDGE('',*,*,#448,.T.);
#195=ORIENTED_EDGE('',*,*,#396,.T.);
#196=ORIENTED_EDGE('',*,*,#438,.T.);
#197=ORIENTED_EDGE('',*,*,#445,.T.);
#198=ORIENTED_EDGE('',*,*,#413,.T.);
#199=ORIENTED_EDGE('',*,*,#449,.F.);
#200=ORIENTED_EDGE('',*,*,#388,.F.);
#201=ORIENTED_EDGE('',*,*,#450,.T.);
#202=ORIENTED_EDGE('',*,*,#410,.T.);
#203=ORIENTED_EDGE('',*,*,#443,.T.);
#204=ORIENTED_EDGE('',*,*,#447,.T.);
#205=ORIENTED_EDGE('',*,*,#395,.T.);
#206=ORIENTED_EDGE('',*,*,#403,.F.);
#207=ORIENTED_EDGE('',*,*,#416,.T.);
#208=ORIENTED_EDGE('',*,*,#397,.F.);
#209=ORIENTED_EDGE('',*,*,#448,.F.);
#210=ORIENTED_EDGE('',*,*,#417,.F.);
#211=ORIENTED_EDGE('',*,*,#404,.T.);
#212=ORIENTED_EDGE('',*,*,#387,.F.);
#213=ORIENTED_EDGE('',*,*,#407,.T.);
#214=ORIENTED_EDGE('',*,*,#411,.F.);
#215=ORIENTED_EDGE('',*,*,#450,.F.);
#216=ORIENTED_EDGE('',*,*,#408,.F.);
#217=ORIENTED_EDGE('',*,*,#389,.T.);
#218=ORIENTED_EDGE('',*,*,#449,.T.);
#219=ORIENTED_EDGE('',*,*,#412,.T.);
#220=ORIENTED_EDGE('',*,*,#402,.T.);
#221=ORIENTED_EDGE('',*,*,#406,.T.);
#222=ORIENTED_EDGE('',*,*,#433,.F.);
#223=ORIENTED_EDGE('',*,*,#451,.T.);
#224=ORIENTED_EDGE('',*,*,#452,.T.);
#225=ORIENTED_EDGE('',*,*,#422,.F.);
#226=ORIENTED_EDGE('',*,*,#453,.F.);
#227=ORIENTED_EDGE('',*,*,#428,.T.);
#228=ORIENTED_EDGE('',*,*,#440,.T.);
#229=ORIENTED_EDGE('',*,*,#454,.F.);
#230=ORIENTED_EDGE('',*,*,#430,.F.);
#231=ORIENTED_EDGE('',*,*,#455,.T.);
#232=ORIENTED_EDGE('',*,*,#420,.T.);
#233=ORIENTED_EDGE('',*,*,#456,.F.);
#234=ORIENTED_EDGE('',*,*,#457,.F.);
#235=ORIENTED_EDGE('',*,*,#435,.T.);
#236=ORIENTED_EDGE('',*,*,#458,.T.);
#237=ORIENTED_EDGE('',*,*,#441,.F.);
#238=ORIENTED_EDGE('',*,*,#442,.T.);
#239=ORIENTED_EDGE('',*,*,#458,.F.);
#240=ORIENTED_EDGE('',*,*,#434,.F.);
#241=ORIENTED_EDGE('',*,*,#454,.T.);
#242=ORIENTED_EDGE('',*,*,#432,.T.);
#243=ORIENTED_EDGE('',*,*,#457,.T.);
#244=ORIENTED_EDGE('',*,*,#459,.T.);
#245=ORIENTED_EDGE('',*,*,#451,.F.);
#246=ORIENTED_EDGE('',*,*,#453,.T.);
#247=ORIENTED_EDGE('',*,*,#421,.F.);
#248=ORIENTED_EDGE('',*,*,#455,.F.);
#249=ORIENTED_EDGE('',*,*,#429,.F.);
#250=ORIENTED_EDGE('',*,*,#423,.T.);
#251=ORIENTED_EDGE('',*,*,#452,.F.);
#252=ORIENTED_EDGE('',*,*,#459,.F.);
#253=ORIENTED_EDGE('',*,*,#456,.T.);
#254=ORIENTED_EDGE('',*,*,#425,.F.);
#255=ORIENTED_EDGE('',*,*,#460,.F.);
#256=ORIENTED_EDGE('',*,*,#461,.T.);
#257=ORIENTED_EDGE('',*,*,#462,.T.);
#258=ORIENTED_EDGE('',*,*,#424,.F.);
#259=ORIENTED_EDGE('',*,*,#463,.F.);
#260=ORIENTED_EDGE('',*,*,#464,.T.);
#261=ORIENTED_EDGE('',*,*,#460,.T.);
#262=ORIENTED_EDGE('',*,*,#427,.T.);
#263=ORIENTED_EDGE('',*,*,#465,.F.);
#264=ORIENTED_EDGE('',*,*,#466,.F.);
#265=ORIENTED_EDGE('',*,*,#463,.T.);
#266=ORIENTED_EDGE('',*,*,#467,.F.);
#267=ORIENTED_EDGE('',*,*,#468,.F.);
#268=ORIENTED_EDGE('',*,*,#469,.T.);
#269=ORIENTED_EDGE('',*,*,#470,.T.);
#270=ORIENTED_EDGE('',*,*,#471,.T.);
#271=ORIENTED_EDGE('',*,*,#472,.F.);
#272=ORIENTED_EDGE('',*,*,#473,.F.);
#273=ORIENTED_EDGE('',*,*,#468,.T.);
#274=ORIENTED_EDGE('',*,*,#474,.T.);
#275=ORIENTED_EDGE('',*,*,#475,.F.);
#276=ORIENTED_EDGE('',*,*,#476,.F.);
#277=ORIENTED_EDGE('',*,*,#472,.T.);
#278=ORIENTED_EDGE('',*,*,#477,.F.);
#279=ORIENTED_EDGE('',*,*,#470,.F.);
#280=ORIENTED_EDGE('',*,*,#478,.T.);
#281=ORIENTED_EDGE('',*,*,#475,.T.);
#282=ORIENTED_EDGE('',*,*,#426,.T.);
#283=ORIENTED_EDGE('',*,*,#462,.F.);
#284=ORIENTED_EDGE('',*,*,#479,.F.);
#285=ORIENTED_EDGE('',*,*,#465,.T.);
#286=ORIENTED_EDGE('',*,*,#469,.F.);
#287=ORIENTED_EDGE('',*,*,#473,.T.);
#288=ORIENTED_EDGE('',*,*,#476,.T.);
#289=ORIENTED_EDGE('',*,*,#478,.F.);
#290=ORIENTED_EDGE('',*,*,#461,.F.);
#291=ORIENTED_EDGE('',*,*,#464,.F.);
#292=ORIENTED_EDGE('',*,*,#466,.T.);
#293=ORIENTED_EDGE('',*,*,#479,.T.);
#294=ORIENTED_EDGE('',*,*,#471,.F.);
#295=ORIENTED_EDGE('',*,*,#467,.T.);
#296=ORIENTED_EDGE('',*,*,#477,.T.);
#297=ORIENTED_EDGE('',*,*,#474,.F.);
#298=ORIENTED_EDGE('',*,*,#398,.F.);
#299=ORIENTED_EDGE('',*,*,#480,.F.);
#300=ORIENTED_EDGE('',*,*,#481,.T.);
#301=ORIENTED_EDGE('',*,*,#482,.T.);
#302=ORIENTED_EDGE('',*,*,#401,.T.);
#303=ORIENTED_EDGE('',*,*,#483,.F.);
#304=ORIENTED_EDGE('',*,*,#484,.F.);
#305=ORIENTED_EDGE('',*,*,#480,.T.);
#306=ORIENTED_EDGE('',*,*,#400,.T.);
#307=ORIENTED_EDGE('',*,*,#485,.F.);
#308=ORIENTED_EDGE('',*,*,#486,.F.);
#309=ORIENTED_EDGE('',*,*,#483,.T.);
#310=ORIENTED_EDGE('',*,*,#399,.F.);
#311=ORIENTED_EDGE('',*,*,#482,.F.);
#312=ORIENTED_EDGE('',*,*,#487,.T.);
#313=ORIENTED_EDGE('',*,*,#485,.T.);
#314=ORIENTED_EDGE('',*,*,#481,.F.);
#315=ORIENTED_EDGE('',*,*,#484,.T.);
#316=ORIENTED_EDGE('',*,*,#486,.T.);
#317=ORIENTED_EDGE('',*,*,#487,.F.);
#318=ORIENTED_EDGE('',*,*,#390,.F.);
#319=ORIENTED_EDGE('',*,*,#488,.F.);
#320=ORIENTED_EDGE('',*,*,#489,.T.);
#321=ORIENTED_EDGE('',*,*,#490,.T.);
#322=ORIENTED_EDGE('',*,*,#393,.F.);
#323=ORIENTED_EDGE('',*,*,#491,.F.);
#324=ORIENTED_EDGE('',*,*,#492,.T.);
#325=ORIENTED_EDGE('',*,*,#488,.T.);
#326=ORIENTED_EDGE('',*,*,#392,.T.);
#327=ORIENTED_EDGE('',*,*,#493,.F.);
#328=ORIENTED_EDGE('',*,*,#494,.F.);
#329=ORIENTED_EDGE('',*,*,#491,.T.);
#330=ORIENTED_EDGE('',*,*,#391,.T.);
#331=ORIENTED_EDGE('',*,*,#490,.F.);
#332=ORIENTED_EDGE('',*,*,#495,.F.);
#333=ORIENTED_EDGE('',*,*,#493,.T.);
#334=ORIENTED_EDGE('',*,*,#489,.F.);
#335=ORIENTED_EDGE('',*,*,#492,.F.);
#336=ORIENTED_EDGE('',*,*,#494,.T.);
#337=ORIENTED_EDGE('',*,*,#495,.T.);
#338=EDGE_CURVE('',#496,#497,#602,.T.);
#339=EDGE_CURVE('',#498,#497,#603,.T.);
#340=EDGE_CURVE('',#499,#498,#604,.T.);
#341=EDGE_CURVE('',#499,#496,#605,.T.);
#342=EDGE_CURVE('',#498,#500,#606,.T.);
#343=EDGE_CURVE('',#501,#500,#607,.T.);
#344=EDGE_CURVE('',#499,#501,#608,.T.);
#345=EDGE_CURVE('',#500,#502,#609,.T.);
#346=EDGE_CURVE('',#503,#502,#610,.T.);
#347=EDGE_CURVE('',#501,#503,#611,.T.);
#348=EDGE_CURVE('',#504,#505,#612,.T.);
#349=EDGE_CURVE('',#506,#505,#613,.T.);
#350=EDGE_CURVE('',#507,#506,#614,.T.);
#351=EDGE_CURVE('',#507,#504,#615,.T.);
#352=EDGE_CURVE('',#508,#506,#616,.T.);
#353=EDGE_CURVE('',#509,#508,#617,.T.);
#354=EDGE_CURVE('',#509,#507,#618,.T.);
#355=EDGE_CURVE('',#508,#510,#619,.T.);
#356=EDGE_CURVE('',#511,#510,#620,.T.);
#357=EDGE_CURVE('',#509,#511,#621,.T.);
#358=EDGE_CURVE('',#510,#505,#622,.T.);
#359=EDGE_CURVE('',#511,#504,#623,.T.);
#360=EDGE_CURVE('',#497,#502,#624,.T.);
#361=EDGE_CURVE('',#496,#503,#625,.T.);
#362=EDGE_CURVE('',#512,#513,#626,.T.);
#363=EDGE_CURVE('',#514,#512,#627,.T.);
#364=EDGE_CURVE('',#514,#515,#628,.T.);
#365=EDGE_CURVE('',#515,#513,#629,.T.);
#366=EDGE_CURVE('',#512,#516,#630,.T.);
#367=EDGE_CURVE('',#517,#516,#631,.T.);
#368=EDGE_CURVE('',#514,#517,#632,.T.);
#369=EDGE_CURVE('',#516,#518,#633,.T.);
#370=EDGE_CURVE('',#519,#518,#634,.T.);
#371=EDGE_CURVE('',#517,#519,#635,.T.);
#372=EDGE_CURVE('',#520,#521,#636,.T.);
#373=EDGE_CURVE('',#522,#520,#637,.T.);
#374=EDGE_CURVE('',#522,#523,#638,.T.);
#375=EDGE_CURVE('',#523,#521,#639,.T.);
#376=EDGE_CURVE('',#520,#524,#640,.T.);
#377=EDGE_CURVE('',#525,#524,#641,.T.);
#378=EDGE_CURVE('',#522,#525,#642,.T.);
#379=EDGE_CURVE('',#524,#526,#643,.T.);
#380=EDGE_CURVE('',#527,#526,#644,.T.);
#381=EDGE_CURVE('',#525,#527,#645,.T.);
#382=EDGE_CURVE('',#521,#526,#646,.T.);
#383=EDGE_CURVE('',#523,#527,#647,.T.);
#384=EDGE_CURVE('',#513,#518,#648,.T.);
#385=EDGE_CURVE('',#515,#519,#649,.T.);
#386=EDGE_CURVE('',#528,#529,#650,.T.);
#387=EDGE_CURVE('',#528,#530,#651,.T.);
#388=EDGE_CURVE('',#530,#531,#652,.T.);
#389=EDGE_CURVE('',#529,#531,#653,.T.);
#390=EDGE_CURVE('',#532,#533,#654,.T.);
#391=EDGE_CURVE('',#534,#533,#655,.T.);
#392=EDGE_CURVE('',#535,#534,#656,.T.);
#393=EDGE_CURVE('',#535,#532,#657,.T.);
#394=EDGE_CURVE('',#536,#537,#658,.T.);
#395=EDGE_CURVE('',#538,#536,#659,.T.);
#396=EDGE_CURVE('',#539,#538,#660,.T.);
#397=EDGE_CURVE('',#539,#537,#661,.T.);
#398=EDGE_CURVE('',#540,#541,#662,.T.);
#399=EDGE_CURVE('',#541,#542,#663,.T.);
#400=EDGE_CURVE('',#543,#542,#664,.T.);
#401=EDGE_CURVE('',#540,#543,#665,.T.);
#402=EDGE_CURVE('',#544,#544,#16,.T.);
#403=EDGE_CURVE('',#545,#536,#666,.T.);
#404=EDGE_CURVE('',#546,#537,#667,.T.);
#405=EDGE_CURVE('',#545,#546,#668,.T.);
#406=EDGE_CURVE('',#547,#547,#17,.T.);
#407=EDGE_CURVE('',#528,#548,#669,.T.);
#408=EDGE_CURVE('',#529,#549,#670,.T.);
#409=EDGE_CURVE('',#548,#549,#671,.T.);
#410=EDGE_CURVE('',#550,#551,#672,.T.);
#411=EDGE_CURVE('',#550,#548,#673,.T.);
#412=EDGE_CURVE('',#552,#549,#674,.T.);
#413=EDGE_CURVE('',#553,#552,#675,.T.);
#414=EDGE_CURVE('',#554,#553,#676,.T.);
#415=EDGE_CURVE('',#554,#555,#677,.T.);
#416=EDGE_CURVE('',#545,#555,#678,.T.);
#417=EDGE_CURVE('',#546,#556,#679,.T.);
#418=EDGE_CURVE('',#556,#557,#680,.T.);
#419=EDGE_CURVE('',#557,#551,#681,.T.);
#420=EDGE_CURVE('',#558,#559,#682,.T.);
#421=EDGE_CURVE('',#558,#560,#683,.T.);
#422=EDGE_CURVE('',#560,#561,#684,.T.);
#423=EDGE_CURVE('',#559,#561,#685,.T.);
#424=EDGE_CURVE('',#562,#563,#686,.T.);
#425=EDGE_CURVE('',#563,#564,#687,.T.);
#426=EDGE_CURVE('',#565,#564,#688,.T.);
#427=EDGE_CURVE('',#562,#565,#689,.T.);
#428=EDGE_CURVE('',#566,#567,#690,.T.);
#429=EDGE_CURVE('',#566,#568,#691,.T.);
#430=EDGE_CURVE('',#568,#569,#692,.T.);
#431=EDGE_CURVE('',#567,#569,#693,.T.);
#432=EDGE_CURVE('',#570,#571,#694,.T.);
#433=EDGE_CURVE('',#570,#572,#695,.T.);
#434=EDGE_CURVE('',#572,#573,#696,.T.);
#435=EDGE_CURVE('',#571,#573,#697,.T.);
#436=EDGE_CURVE('',#574,#575,#698,.T.);
#437=EDGE_CURVE('',#575,#576,#699,.T.);
#438=EDGE_CURVE('',#577,#576,#700,.T.);
#439=EDGE_CURVE('',#574,#577,#701,.T.);
#440=EDGE_CURVE('',#567,#578,#11,.T.);
#441=EDGE_CURVE('',#569,#579,#12,.T.);
#442=EDGE_CURVE('',#578,#579,#702,.T.);
#443=EDGE_CURVE('',#551,#577,#13,.T.);
#444=EDGE_CURVE('',#557,#574,#14,.T.);
#445=EDGE_CURVE('',#576,#553,#703,.T.);
#446=EDGE_CURVE('',#575,#554,#704,.T.);
#447=EDGE_CURVE('',#555,#538,#705,.T.);
#448=EDGE_CURVE('',#556,#539,#706,.T.);
#449=EDGE_CURVE('',#531,#552,#707,.T.);
#450=EDGE_CURVE('',#530,#550,#708,.T.);
#451=EDGE_CURVE('',#570,#580,#709,.T.);
#452=EDGE_CURVE('',#580,#561,#710,.T.);
#453=EDGE_CURVE('',#566,#560,#711,.T.);
#454=EDGE_CURVE('',#572,#578,#712,.T.);
#455=EDGE_CURVE('',#568,#558,#713,.T.);
#456=EDGE_CURVE('',#581,#559,#714,.T.);
#457=EDGE_CURVE('',#571,#581,#715,.T.);
#458=EDGE_CURVE('',#573,#579,#716,.T.);
#459=EDGE_CURVE('',#581,#580,#717,.T.);
#460=EDGE_CURVE('',#582,#563,#718,.T.);
#461=EDGE_CURVE('',#582,#583,#719,.T.);
#462=EDGE_CURVE('',#583,#564,#720,.T.);
#463=EDGE_CURVE('',#584,#562,#721,.T.);
#464=EDGE_CURVE('',#584,#582,#722,.T.);
#465=EDGE_CURVE('',#585,#565,#723,.T.);
#466=EDGE_CURVE('',#584,#585,#724,.T.);
#467=EDGE_CURVE('',#586,#587,#725,.T.);
#468=EDGE_CURVE('',#588,#586,#726,.T.);
#469=EDGE_CURVE('',#588,#589,#727,.T.);
#470=EDGE_CURVE('',#589,#587,#728,.T.);
#471=EDGE_CURVE('',#586,#590,#729,.T.);
#472=EDGE_CURVE('',#591,#590,#730,.T.);
#473=EDGE_CURVE('',#588,#591,#731,.T.);
#474=EDGE_CURVE('',#590,#592,#732,.T.);
#475=EDGE_CURVE('',#593,#592,#733,.T.);
#476=EDGE_CURVE('',#591,#593,#734,.T.);
#477=EDGE_CURVE('',#587,#592,#735,.T.);
#478=EDGE_CURVE('',#589,#593,#736,.T.);
#479=EDGE_CURVE('',#585,#583,#737,.T.);
#480=EDGE_CURVE('',#594,#540,#738,.T.);
#481=EDGE_CURVE('',#594,#595,#739,.T.);
#482=EDGE_CURVE('',#595,#541,#740,.T.);
#483=EDGE_CURVE('',#596,#543,#741,.T.);
#484=EDGE_CURVE('',#594,#596,#742,.T.);
#485=EDGE_CURVE('',#597,#542,#743,.T.);
#486=EDGE_CURVE('',#596,#597,#744,.T.);
#487=EDGE_CURVE('',#595,#597,#745,.T.);
#488=EDGE_CURVE('',#598,#532,#746,.T.);
#489=EDGE_CURVE('',#598,#599,#747,.T.);
#490=EDGE_CURVE('',#599,#533,#748,.T.);
#491=EDGE_CURVE('',#600,#535,#749,.T.);
#492=EDGE_CURVE('',#600,#598,#750,.T.);
#493=EDGE_CURVE('',#601,#534,#751,.T.);
#494=EDGE_CURVE('',#600,#601,#752,.T.);
#495=EDGE_CURVE('',#601,#599,#753,.T.);
#496=VERTEX_POINT('',#1554);
#497=VERTEX_POINT('',#1555);
#498=VERTEX_POINT('',#1557);
#499=VERTEX_POINT('',#1559);
#500=VERTEX_POINT('',#1563);
#501=VERTEX_POINT('',#1565);
#502=VERTEX_POINT('',#1569);
#503=VERTEX_POINT('',#1571);
#504=VERTEX_POINT('',#1575);
#505=VERTEX_POINT('',#1576);
#506=VERTEX_POINT('',#1578);
#507=VERTEX_POINT('',#1580);
#508=VERTEX_POINT('',#1584);
#509=VERTEX_POINT('',#1586);
#510=VERTEX_POINT('',#1590);
#511=VERTEX_POINT('',#1592);
#512=VERTEX_POINT('',#1603);
#513=VERTEX_POINT('',#1604);
#514=VERTEX_POINT('',#1606);
#515=VERTEX_POINT('',#1608);
#516=VERTEX_POINT('',#1612);
#517=VERTEX_POINT('',#1614);
#518=VERTEX_POINT('',#1618);
#519=VERTEX_POINT('',#1620);
#520=VERTEX_POINT('',#1624);
#521=VERTEX_POINT('',#1625);
#522=VERTEX_POINT('',#1627);
#523=VERTEX_POINT('',#1629);
#524=VERTEX_POINT('',#1633);
#525=VERTEX_POINT('',#1635);
#526=VERTEX_POINT('',#1639);
#527=VERTEX_POINT('',#1641);
#528=VERTEX_POINT('',#1654);
#529=VERTEX_POINT('',#1655);
#530=VERTEX_POINT('',#1657);
#531=VERTEX_POINT('',#1659);
#532=VERTEX_POINT('',#1662);
#533=VERTEX_POINT('',#1663);
#534=VERTEX_POINT('',#1665);
#535=VERTEX_POINT('',#1667);
#536=VERTEX_POINT('',#1671);
#537=VERTEX_POINT('',#1672);
#538=VERTEX_POINT('',#1674);
#539=VERTEX_POINT('',#1676);
#540=VERTEX_POINT('',#1679);
#541=VERTEX_POINT('',#1680);
#542=VERTEX_POINT('',#1682);
#543=VERTEX_POINT('',#1684);
#544=VERTEX_POINT('',#1688);
#545=VERTEX_POINT('',#1690);
#546=VERTEX_POINT('',#1692);
#547=VERTEX_POINT('',#1696);
#548=VERTEX_POINT('',#1698);
#549=VERTEX_POINT('',#1700);
#550=VERTEX_POINT('',#1704);
#551=VERTEX_POINT('',#1705);
#552=VERTEX_POINT('',#1708);
#553=VERTEX_POINT('',#1710);
#554=VERTEX_POINT('',#1712);
#555=VERTEX_POINT('',#1714);
#556=VERTEX_POINT('',#1717);
#557=VERTEX_POINT('',#1719);
#558=VERTEX_POINT('',#1722);
#559=VERTEX_POINT('',#1723);
#560=VERTEX_POINT('',#1725);
#561=VERTEX_POINT('',#1727);
#562=VERTEX_POINT('',#1730);
#563=VERTEX_POINT('',#1731);
#564=VERTEX_POINT('',#1733);
#565=VERTEX_POINT('',#1735);
#566=VERTEX_POINT('',#1739);
#567=VERTEX_POINT('',#1740);
#568=VERTEX_POINT('',#1742);
#569=VERTEX_POINT('',#1744);
#570=VERTEX_POINT('',#1748);
#571=VERTEX_POINT('',#1749);
#572=VERTEX_POINT('',#1751);
#573=VERTEX_POINT('',#1753);
#574=VERTEX_POINT('',#1757);
#575=VERTEX_POINT('',#1758);
#576=VERTEX_POINT('',#1760);
#577=VERTEX_POINT('',#1762);
#578=VERTEX_POINT('',#1776);
#579=VERTEX_POINT('',#1781);
#580=VERTEX_POINT('',#1807);
#581=VERTEX_POINT('',#1814);
#582=VERTEX_POINT('',#1824);
#583=VERTEX_POINT('',#1826);
#584=VERTEX_POINT('',#1830);
#585=VERTEX_POINT('',#1834);
#586=VERTEX_POINT('',#1838);
#587=VERTEX_POINT('',#1839);
#588=VERTEX_POINT('',#1841);
#589=VERTEX_POINT('',#1843);
#590=VERTEX_POINT('',#1847);
#591=VERTEX_POINT('',#1849);
#592=VERTEX_POINT('',#1853);
#593=VERTEX_POINT('',#1855);
#594=VERTEX_POINT('',#1866);
#595=VERTEX_POINT('',#1868);
#596=VERTEX_POINT('',#1872);
#597=VERTEX_POINT('',#1876);
#598=VERTEX_POINT('',#1883);
#599=VERTEX_POINT('',#1885);
#600=VERTEX_POINT('',#1889);
#601=VERTEX_POINT('',#1893);
#602=LINE('',#1553,#754);
#603=LINE('',#1556,#755);
#604=LINE('',#1558,#756);
#605=LINE('',#1560,#757);
#606=LINE('',#1562,#758);
#607=LINE('',#1564,#759);
#608=LINE('',#1566,#760);
#609=LINE('',#1568,#761);
#610=LINE('',#1570,#762);
#611=LINE('',#1572,#763);
#612=LINE('',#1574,#764);
#613=LINE('',#1577,#765);
#614=LINE('',#1579,#766);
#615=LINE('',#1581,#767);
#616=LINE('',#1583,#768);
#617=LINE('',#1585,#769);
#618=LINE('',#1587,#770);
#619=LINE('',#1589,#771);
#620=LINE('',#1591,#772);
#621=LINE('',#1593,#773);
#622=LINE('',#1595,#774);
#623=LINE('',#1596,#775);
#624=LINE('',#1598,#776);
#625=LINE('',#1599,#777);
#626=LINE('',#1602,#778);
#627=LINE('',#1605,#779);
#628=LINE('',#1607,#780);
#629=LINE('',#1609,#781);
#630=LINE('',#1611,#782);
#631=LINE('',#1613,#783);
#632=LINE('',#1615,#784);
#633=LINE('',#1617,#785);
#634=LINE('',#1619,#786);
#635=LINE('',#1621,#787);
#636=LINE('',#1623,#788);
#637=LINE('',#1626,#789);
#638=LINE('',#1628,#790);
#639=LINE('',#1630,#791);
#640=LINE('',#1632,#792);
#641=LINE('',#1634,#793);
#642=LINE('',#1636,#794);
#643=LINE('',#1638,#795);
#644=LINE('',#1640,#796);
#645=LINE('',#1642,#797);
#646=LINE('',#1644,#798);
#647=LINE('',#1645,#799);
#648=LINE('',#1647,#800);
#649=LINE('',#1648,#801);
#650=LINE('',#1653,#802);
#651=LINE('',#1656,#803);
#652=LINE('',#1658,#804);
#653=LINE('',#1660,#805);
#654=LINE('',#1661,#806);
#655=LINE('',#1664,#807);
#656=LINE('',#1666,#808);
#657=LINE('',#1668,#809);
#658=LINE('',#1670,#810);
#659=LINE('',#1673,#811);
#660=LINE('',#1675,#812);
#661=LINE('',#1677,#813);
#662=LINE('',#1678,#814);
#663=LINE('',#1681,#815);
#664=LINE('',#1683,#816);
#665=LINE('',#1685,#817);
#666=LINE('',#1689,#818);
#667=LINE('',#1691,#819);
#668=LINE('',#1693,#820);
#669=LINE('',#1697,#821);
#670=LINE('',#1699,#822);
#671=LINE('',#1701,#823);
#672=LINE('',#1703,#824);
#673=LINE('',#1706,#825);
#674=LINE('',#1707,#826);
#675=LINE('',#1709,#827);
#676=LINE('',#1711,#828);
#677=LINE('',#1713,#829);
#678=LINE('',#1715,#830);
#679=LINE('',#1716,#831);
#680=LINE('',#1718,#832);
#681=LINE('',#1720,#833);
#682=LINE('',#1721,#834);
#683=LINE('',#1724,#835);
#684=LINE('',#1726,#836);
#685=LINE('',#1728,#837);
#686=LINE('',#1729,#838);
#687=LINE('',#1732,#839);
#688=LINE('',#1734,#840);
#689=LINE('',#1736,#841);
#690=LINE('',#1738,#842);
#691=LINE('',#1741,#843);
#692=LINE('',#1743,#844);
#693=LINE('',#1745,#845);
#694=LINE('',#1747,#846);
#695=LINE('',#1750,#847);
#696=LINE('',#1752,#848);
#697=LINE('',#1754,#849);
#698=LINE('',#1756,#850);
#699=LINE('',#1759,#851);
#700=LINE('',#1761,#852);
#701=LINE('',#1763,#853);
#702=LINE('',#1782,#854);
#703=LINE('',#1792,#855);
#704=LINE('',#1793,#856);
#705=LINE('',#1795,#857);
#706=LINE('',#1796,#858);
#707=LINE('',#1798,#859);
#708=LINE('',#1799,#860);
#709=LINE('',#1806,#861);
#710=LINE('',#1808,#862);
#711=LINE('',#1809,#863);
#712=LINE('',#1810,#864);
#713=LINE('',#1812,#865);
#714=LINE('',#1813,#866);
#715=LINE('',#1815,#867);
#716=LINE('',#1816,#868);
#717=LINE('',#1819,#869);
#718=LINE('',#1823,#870);
#719=LINE('',#1825,#871);
#720=LINE('',#1827,#872);
#721=LINE('',#1829,#873);
#722=LINE('',#1831,#874);
#723=LINE('',#1833,#875);
#724=LINE('',#1835,#876);
#725=LINE('',#1837,#877);
#726=LINE('',#1840,#878);
#727=LINE('',#1842,#879);
#728=LINE('',#1844,#880);
#729=LINE('',#1846,#881);
#730=LINE('',#1848,#882);
#731=LINE('',#1850,#883);
#732=LINE('',#1852,#884);
#733=LINE('',#1854,#885);
#734=LINE('',#1856,#886);
#735=LINE('',#1858,#887);
#736=LINE('',#1859,#888);
#737=LINE('',#1861,#889);
#738=LINE('',#1865,#890);
#739=LINE('',#1867,#891);
#740=LINE('',#1869,#892);
#741=LINE('',#1871,#893);
#742=LINE('',#1873,#894);
#743=LINE('',#1875,#895);
#744=LINE('',#1877,#896);
#745=LINE('',#1879,#897);
#746=LINE('',#1882,#898);
#747=LINE('',#1884,#899);
#748=LINE('',#1886,#900);
#749=LINE('',#1888,#901);
#750=LINE('',#1890,#902);
#751=LINE('',#1892,#903);
#752=LINE('',#1894,#904);
#753=LINE('',#1896,#905);
#754=VECTOR('',#1273,1.);
#755=VECTOR('',#1274,1.);
#756=VECTOR('',#1275,1.);
#757=VECTOR('',#1276,1.);
#758=VECTOR('',#1279,1.);
#759=VECTOR('',#1280,1.);
#760=VECTOR('',#1281,1.);
#761=VECTOR('',#1284,1.);
#762=VECTOR('',#1285,1.);
#763=VECTOR('',#1286,1.);
#764=VECTOR('',#1289,1.);
#765=VECTOR('',#1290,1.);
#766=VECTOR('',#1291,1.);
#767=VECTOR('',#1292,1.);
#768=VECTOR('',#1295,1.);
#769=VECTOR('',#1296,1.);
#770=VECTOR('',#1297,1.);
#771=VECTOR('',#1300,1.);
#772=VECTOR('',#1301,1.);
#773=VECTOR('',#1302,1.);
#774=VECTOR('',#1305,1.);
#775=VECTOR('',#1306,1.);
#776=VECTOR('',#1309,1.);
#777=VECTOR('',#1310,1.);
#778=VECTOR('',#1315,1.);
#779=VECTOR('',#1316,1.);
#780=VECTOR('',#1317,1.);
#781=VECTOR('',#1318,1.);
#782=VECTOR('',#1321,1.);
#783=VECTOR('',#1322,1.);
#784=VECTOR('',#1323,1.);
#785=VECTOR('',#1326,1.);
#786=VECTOR('',#1327,1.);
#787=VECTOR('',#1328,1.);
#788=VECTOR('',#1331,1.);
#789=VECTOR('',#1332,1.);
#790=VECTOR('',#1333,1.);
#791=VECTOR('',#1334,1.);
#792=VECTOR('',#1337,1.);
#793=VECTOR('',#1338,1.);
#794=VECTOR('',#1339,1.);
#795=VECTOR('',#1342,1.);
#796=VECTOR('',#1343,1.);
#797=VECTOR('',#1344,1.);
#798=VECTOR('',#1347,1.);
#799=VECTOR('',#1348,1.);
#800=VECTOR('',#1351,1.);
#801=VECTOR('',#1352,1.);
#802=VECTOR('',#1361,1.);
#803=VECTOR('',#1362,1.);
#804=VECTOR('',#1363,1.);
#805=VECTOR('',#1364,1.);
#806=VECTOR('',#1365,1.);
#807=VECTOR('',#1366,1.);
#808=VECTOR('',#1367,1.);
#809=VECTOR('',#1368,1.);
#810=VECTOR('',#1371,1.);
#811=VECTOR('',#1372,1.);
#812=VECTOR('',#1373,1.);
#813=VECTOR('',#1374,1.);
#814=VECTOR('',#1375,1.);
#815=VECTOR('',#1376,1.);
#816=VECTOR('',#1377,1.);
#817=VECTOR('',#1378,1.);
#818=VECTOR('',#1383,1.);
#819=VECTOR('',#1384,1.);
#820=VECTOR('',#1385,1.);
#821=VECTOR('',#1390,1.);
#822=VECTOR('',#1391,1.);
#823=VECTOR('',#1392,1.);
#824=VECTOR('',#1395,1.);
#825=VECTOR('',#1396,1.);
#826=VECTOR('',#1397,1.);
#827=VECTOR('',#1398,1.);
#828=VECTOR('',#1399,1.);
#829=VECTOR('',#1400,1.);
#830=VECTOR('',#1401,1.);
#831=VECTOR('',#1402,1.);
#832=VECTOR('',#1403,1.);
#833=VECTOR('',#1404,1.);
#834=VECTOR('',#1405,1.);
#835=VECTOR('',#1406,1.);
#836=VECTOR('',#1407,1.);
#837=VECTOR('',#1408,1.);
#838=VECTOR('',#1409,1.);
#839=VECTOR('',#1410,1.);
#840=VECTOR('',#1411,1.);
#841=VECTOR('',#1412,1.);
#842=VECTOR('',#1415,1.);
#843=VECTOR('',#1416,1.);
#844=VECTOR('',#1417,1.);
#845=VECTOR('',#1418,1.);
#846=VECTOR('',#1421,1.);
#847=VECTOR('',#1422,1.);
#848=VECTOR('',#1423,1.);
#849=VECTOR('',#1424,1.);
#850=VECTOR('',#1427,1.);
#851=VECTOR('',#1428,1.);
#852=VECTOR('',#1429,1.);
#853=VECTOR('',#1430,1.);
#854=VECTOR('',#1431,1.);
#855=VECTOR('',#1434,1.);
#856=VECTOR('',#1435,1.);
#857=VECTOR('',#1438,1.);
#858=VECTOR('',#1439,1.);
#859=VECTOR('',#1442,1.);
#860=VECTOR('',#1443,1.);
#861=VECTOR('',#1456,1.);
#862=VECTOR('',#1457,1.);
#863=VECTOR('',#1458,1.);
#864=VECTOR('',#1459,1.);
#865=VECTOR('',#1462,1.);
#866=VECTOR('',#1463,1.);
#867=VECTOR('',#1464,1.);
#868=VECTOR('',#1465,1.);
#869=VECTOR('',#1470,1.);
#870=VECTOR('',#1477,1.);
#871=VECTOR('',#1478,1.);
#872=VECTOR('',#1479,1.);
#873=VECTOR('',#1482,1.);
#874=VECTOR('',#1483,1.);
#875=VECTOR('',#1486,1.);
#876=VECTOR('',#1487,1.);
#877=VECTOR('',#1490,1.);
#878=VECTOR('',#1491,1.);
#879=VECTOR('',#1492,1.);
#880=VECTOR('',#1493,1.);
#881=VECTOR('',#1496,1.);
#882=VECTOR('',#1497,1.);
#883=VECTOR('',#1498,1.);
#884=VECTOR('',#1501,1.);
#885=VECTOR('',#1502,1.);
#886=VECTOR('',#1503,1.);
#887=VECTOR('',#1506,1.);
#888=VECTOR('',#1507,1.);
#889=VECTOR('',#1510,1.);
#890=VECTOR('',#1517,1.);
#891=VECTOR('',#1518,1.);
#892=VECTOR('',#1519,1.);
#893=VECTOR('',#1522,1.);
#894=VECTOR('',#1523,1.);
#895=VECTOR('',#1526,1.);
#896=VECTOR('',#1527,1.);
#897=VECTOR('',#1530,1.);
#898=VECTOR('',#1535,1.);
#899=VECTOR('',#1536,1.);
#900=VECTOR('',#1537,1.);
#901=VECTOR('',#1540,1.);
#902=VECTOR('',#1541,1.);
#903=VECTOR('',#1544,1.);
#904=VECTOR('',#1545,1.);
#905=VECTOR('',#1548,1.);
#906=EDGE_LOOP('',(#22,#23,#24,#25));
#907=EDGE_LOOP('',(#26,#27,#28,#29));
#908=EDGE_LOOP('',(#30,#31,#32,#33));
#909=EDGE_LOOP('',(#34,#35,#36,#37));
#910=EDGE_LOOP('',(#38,#39,#40,#41));
#911=EDGE_LOOP('',(#42,#43,#44,#45));
#912=EDGE_LOOP('',(#46,#47,#48,#49));
#913=EDGE_LOOP('',(#50,#51,#52,#53));
#914=EDGE_LOOP('',(#54,#55,#56,#57));
#915=EDGE_LOOP('',(#58,#59,#60,#61));
#916=EDGE_LOOP('',(#62,#63,#64,#65));
#917=EDGE_LOOP('',(#66,#67,#68,#69));
#918=EDGE_LOOP('',(#70,#71,#72,#73));
#919=EDGE_LOOP('',(#74,#75,#76,#77));
#920=EDGE_LOOP('',(#78,#79,#80,#81));
#921=EDGE_LOOP('',(#82,#83,#84,#85));
#922=EDGE_LOOP('',(#86,#87,#88,#89));
#923=EDGE_LOOP('',(#90,#91,#92,#93));
#924=EDGE_LOOP('',(#94,#95,#96,#97));
#925=EDGE_LOOP('',(#98,#99,#100,#101));
#926=EDGE_LOOP('',(#102,#103,#104,#105));
#927=EDGE_LOOP('',(#106,#107,#108,#109));
#928=EDGE_LOOP('',(#110,#111,#112,#113));
#929=EDGE_LOOP('',(#114,#115,#116,#117));
#930=EDGE_LOOP('',(#118,#119,#120,#121));
#931=EDGE_LOOP('',(#122,#123,#124,#125));
#932=EDGE_LOOP('',(#126,#127,#128,#129));
#933=EDGE_LOOP('',(#130,#131,#132,#133));
#934=EDGE_LOOP('',(#134));
#935=EDGE_LOOP('',(#135,#136,#137,#138));
#936=EDGE_LOOP('',(#139));
#937=EDGE_LOOP('',(#140,#141,#142,#143));
#938=EDGE_LOOP('',(#144,#145,#146,#147,#148,#149,#150,#151,#152,#153,#154,
#155));
#939=EDGE_LOOP('',(#156,#157,#158,#159));
#940=EDGE_LOOP('',(#160,#161,#162,#163));
#941=EDGE_LOOP('',(#164,#165,#166,#167));
#942=EDGE_LOOP('',(#168,#169,#170,#171));
#943=EDGE_LOOP('',(#172,#173,#174,#175));
#944=EDGE_LOOP('',(#176,#177,#178,#179));
#945=EDGE_LOOP('',(#180,#181,#182,#183));
#946=EDGE_LOOP('',(#184,#185,#186,#187));
#947=EDGE_LOOP('',(#188,#189,#190,#191,#192,#193,#194,#195));
#948=EDGE_LOOP('',(#196,#197,#198,#199,#200,#201,#202,#203));
#949=EDGE_LOOP('',(#204,#205,#206,#207));
#950=EDGE_LOOP('',(#208,#209,#210,#211));
#951=EDGE_LOOP('',(#212,#213,#214,#215));
#952=EDGE_LOOP('',(#216,#217,#218,#219));
#953=EDGE_LOOP('',(#220));
#954=EDGE_LOOP('',(#221));
#955=EDGE_LOOP('',(#222,#223,#224,#225,#226,#227,#228,#229));
#956=EDGE_LOOP('',(#230,#231,#232,#233,#234,#235,#236,#237));
#957=EDGE_LOOP('',(#238,#239,#240,#241));
#958=EDGE_LOOP('',(#242,#243,#244,#245));
#959=EDGE_LOOP('',(#246,#247,#248,#249));
#960=EDGE_LOOP('',(#250,#251,#252,#253));
#961=EDGE_LOOP('',(#254,#255,#256,#257));
#962=EDGE_LOOP('',(#258,#259,#260,#261));
#963=EDGE_LOOP('',(#262,#263,#264,#265));
#964=EDGE_LOOP('',(#266,#267,#268,#269));
#965=EDGE_LOOP('',(#270,#271,#272,#273));
#966=EDGE_LOOP('',(#274,#275,#276,#277));
#967=EDGE_LOOP('',(#278,#279,#280,#281));
#968=EDGE_LOOP('',(#282,#283,#284,#285));
#969=EDGE_LOOP('',(#286,#287,#288,#289));
#970=EDGE_LOOP('',(#290,#291,#292,#293));
#971=EDGE_LOOP('',(#294,#295,#296,#297));
#972=EDGE_LOOP('',(#298,#299,#300,#301));
#973=EDGE_LOOP('',(#302,#303,#304,#305));
#974=EDGE_LOOP('',(#306,#307,#308,#309));
#975=EDGE_LOOP('',(#310,#311,#312,#313));
#976=EDGE_LOOP('',(#314,#315,#316,#317));
#977=EDGE_LOOP('',(#318,#319,#320,#321));
#978=EDGE_LOOP('',(#322,#323,#324,#325));
#979=EDGE_LOOP('',(#326,#327,#328,#329));
#980=EDGE_LOOP('',(#330,#331,#332,#333));
#981=EDGE_LOOP('',(#334,#335,#336,#337));
#982=FACE_BOUND('',#906,.T.);
#983=FACE_BOUND('',#907,.T.);
#984=FACE_BOUND('',#908,.T.);
#985=FACE_BOUND('',#909,.T.);
#986=FACE_BOUND('',#910,.T.);
#987=FACE_BOUND('',#911,.T.);
#988=FACE_BOUND('',#912,.T.);
#989=FACE_BOUND('',#913,.T.);
#990=FACE_BOUND('',#914,.T.);
#991=FACE_BOUND('',#915,.T.);
#992=FACE_BOUND('',#916,.T.);
#993=FACE_BOUND('',#917,.T.);
#994=FACE_BOUND('',#918,.T.);
#995=FACE_BOUND('',#919,.T.);
#996=FACE_BOUND('',#920,.T.);
#997=FACE_BOUND('',#921,.T.);
#998=FACE_BOUND('',#922,.T.);
#999=FACE_BOUND('',#923,.T.);
#1000=FACE_BOUND('',#924,.T.);
#1001=FACE_BOUND('',#925,.T.);
#1002=FACE_BOUND('',#926,.T.);
#1003=FACE_BOUND('',#927,.T.);
#1004=FACE_BOUND('',#928,.T.);
#1005=FACE_BOUND('',#929,.T.);
#1006=FACE_BOUND('',#930,.T.);
#1007=FACE_BOUND('',#931,.T.);
#1008=FACE_BOUND('',#932,.T.);
#1009=FACE_BOUND('',#933,.T.);
#1010=FACE_BOUND('',#934,.T.);
#1011=FACE_BOUND('',#935,.T.);
#1012=FACE_BOUND('',#936,.T.);
#1013=FACE_BOUND('',#937,.T.);
#1014=FACE_BOUND('',#938,.T.);
#1015=FACE_BOUND('',#939,.T.);
#1016=FACE_BOUND('',#940,.T.);
#1017=FACE_BOUND('',#941,.T.);
#1018=FACE_BOUND('',#942,.T.);
#1019=FACE_BOUND('',#943,.T.);
#1020=FACE_BOUND('',#944,.T.);
#1021=FACE_BOUND('',#945,.T.);
#1022=FACE_BOUND('',#946,.T.);
#1023=FACE_BOUND('',#947,.T.);
#1024=FACE_BOUND('',#948,.T.);
#1025=FACE_BOUND('',#949,.T.);
#1026=FACE_BOUND('',#950,.T.);
#1027=FACE_BOUND('',#951,.T.);
#1028=FACE_BOUND('',#952,.T.);
#1029=FACE_BOUND('',#953,.T.);
#1030=FACE_BOUND('',#954,.T.);
#1031=FACE_BOUND('',#955,.T.);
#1032=FACE_BOUND('',#956,.T.);
#1033=FACE_BOUND('',#957,.T.);
#1034=FACE_BOUND('',#958,.T.);
#1035=FACE_BOUND('',#959,.T.);
#1036=FACE_BOUND('',#960,.T.);
#1037=FACE_BOUND('',#961,.T.);
#1038=FACE_BOUND('',#962,.T.);
#1039=FACE_BOUND('',#963,.T.);
#1040=FACE_BOUND('',#964,.T.);
#1041=FACE_BOUND('',#965,.T.);
#1042=FACE_BOUND('',#966,.T.);
#1043=FACE_BOUND('',#967,.T.);
#1044=FACE_BOUND('',#968,.T.);
#1045=FACE_BOUND('',#969,.T.);
#1046=FACE_BOUND('',#970,.T.);
#1047=FACE_BOUND('',#971,.T.);
#1048=FACE_BOUND('',#972,.T.);
#1049=FACE_BOUND('',#973,.T.);
#1050=FACE_BOUND('',#974,.T.);
#1051=FACE_BOUND('',#975,.T.);
#1052=FACE_BOUND('',#976,.T.);
#1053=FACE_BOUND('',#977,.T.);
#1054=FACE_BOUND('',#978,.T.);
#1055=FACE_BOUND('',#979,.T.);
#1056=FACE_BOUND('',#980,.T.);
#1057=FACE_BOUND('',#981,.T.);
#1058=PLANE('',#1205);
#1059=PLANE('',#1206);
#1060=PLANE('',#1207);
#1061=PLANE('',#1208);
#1062=PLANE('',#1209);
#1063=PLANE('',#1210);
#1064=PLANE('',#1211);
#1065=PLANE('',#1212);
#1066=PLANE('',#1213);
#1067=PLANE('',#1214);
#1068=PLANE('',#1215);
#1069=PLANE('',#1216);
#1070=PLANE('',#1217);
#1071=PLANE('',#1218);
#1072=PLANE('',#1219);
#1073=PLANE('',#1220);
#1074=PLANE('',#1221);
#1075=PLANE('',#1222);
#1076=PLANE('',#1223);
#1077=PLANE('',#1225);
#1078=PLANE('',#1226);
#1079=PLANE('',#1227);
#1080=PLANE('',#1229);
#1081=PLANE('',#1231);
#1082=PLANE('',#1232);
#1083=PLANE('',#1233);
#1084=PLANE('',#1234);
#1085=PLANE('',#1235);
#1086=PLANE('',#1236);
#1087=PLANE('',#1237);
#1088=PLANE('',#1238);
#1089=PLANE('',#1239);
#1090=PLANE('',#1240);
#1091=PLANE('',#1241);
#1092=PLANE('',#1243);
#1093=PLANE('',#1244);
#1094=PLANE('',#1245);
#1095=PLANE('',#1246);
#1096=PLANE('',#1247);
#1097=PLANE('',#1248);
#1098=PLANE('',#1249);
#1099=PLANE('',#1250);
#1100=PLANE('',#1251);
#1101=PLANE('',#1252);
#1102=PLANE('',#1253);
#1103=PLANE('',#1254);
#1104=PLANE('',#1255);
#1105=PLANE('',#1256);
#1106=PLANE('',#1257);
#1107=PLANE('',#1258);
#1108=PLANE('',#1259);
#1109=PLANE('',#1260);
#1110=PLANE('',#1261);
#1111=PLANE('',#1262);
#1112=PLANE('',#1263);
#1113=PLANE('',#1264);
#1114=PLANE('',#1265);
#1115=PLANE('',#1266);
#1116=PLANE('',#1267);
#1117=PLANE('',#1268);
#1118=ADVANCED_FACE('',(#982),#1058,.T.);
#1119=ADVANCED_FACE('',(#983),#1059,.F.);
#1120=ADVANCED_FACE('',(#984),#1060,.F.);
#1121=ADVANCED_FACE('',(#985),#1061,.T.);
#1122=ADVANCED_FACE('',(#986),#1062,.T.);
#1123=ADVANCED_FACE('',(#987),#1063,.F.);
#1124=ADVANCED_FACE('',(#988),#1064,.F.);
#1125=ADVANCED_FACE('',(#989),#1065,.T.);
#1126=ADVANCED_FACE('',(#990,#991),#1066,.F.);
#1127=ADVANCED_FACE('',(#992),#1067,.T.);
#1128=ADVANCED_FACE('',(#993),#1068,.F.);
#1129=ADVANCED_FACE('',(#994),#1069,.F.);
#1130=ADVANCED_FACE('',(#995),#1070,.T.);
#1131=ADVANCED_FACE('',(#996),#1071,.F.);
#1132=ADVANCED_FACE('',(#997),#1072,.F.);
#1133=ADVANCED_FACE('',(#998),#1073,.T.);
#1134=ADVANCED_FACE('',(#999),#1074,.T.);
#1135=ADVANCED_FACE('',(#1000,#1001,#1002),#1075,.T.);
#1136=ADVANCED_FACE('',(#1003,#1004,#1005),#1076,.F.);
#1137=ADVANCED_FACE('',(#1006,#1007),#1077,.F.);
#1138=ADVANCED_FACE('',(#1008,#1009),#1078,.F.);
#1139=ADVANCED_FACE('',(#1010,#1011),#1079,.T.);
#1140=ADVANCED_FACE('',(#1012,#1013),#1080,.T.);
#1141=ADVANCED_FACE('',(#1014,#1015,#1016),#1081,.T.);
#1142=ADVANCED_FACE('',(#1017),#1082,.T.);
#1143=ADVANCED_FACE('',(#1018),#1083,.F.);
#1144=ADVANCED_FACE('',(#1019),#1084,.T.);
#1145=ADVANCED_FACE('',(#1020,#1021),#15,.T.);
#1146=ADVANCED_FACE('',(#1022),#1085,.T.);
#1147=ADVANCED_FACE('',(#1023),#1086,.T.);
#1148=ADVANCED_FACE('',(#1024),#1087,.F.);
#1149=ADVANCED_FACE('',(#1025),#1088,.F.);
#1150=ADVANCED_FACE('',(#1026),#1089,.T.);
#1151=ADVANCED_FACE('',(#1027),#1090,.T.);
#1152=ADVANCED_FACE('',(#1028),#1091,.F.);
#1153=ADVANCED_FACE('',(#1029,#1030),#10,.F.);
#1154=ADVANCED_FACE('',(#1031),#1092,.F.);
#1155=ADVANCED_FACE('',(#1032),#1093,.T.);
#1156=ADVANCED_FACE('',(#1033),#1094,.F.);
#1157=ADVANCED_FACE('',(#1034),#1095,.T.);
#1158=ADVANCED_FACE('',(#1035),#1096,.T.);
#1159=ADVANCED_FACE('',(#1036),#1097,.F.);
#1160=ADVANCED_FACE('',(#1037),#1098,.T.);
#1161=ADVANCED_FACE('',(#1038),#1099,.T.);
#1162=ADVANCED_FACE('',(#1039),#1100,.F.);
#1163=ADVANCED_FACE('',(#1040),#1101,.T.);
#1164=ADVANCED_FACE('',(#1041),#1102,.F.);
#1165=ADVANCED_FACE('',(#1042),#1103,.F.);
#1166=ADVANCED_FACE('',(#1043),#1104,.T.);
#1167=ADVANCED_FACE('',(#1044),#1105,.F.);
#1168=ADVANCED_FACE('',(#1045,#1046),#1106,.T.);
#1169=ADVANCED_FACE('',(#1047),#1107,.T.);
#1170=ADVANCED_FACE('',(#1048),#1108,.T.);
#1171=ADVANCED_FACE('',(#1049),#1109,.F.);
#1172=ADVANCED_FACE('',(#1050),#1110,.F.);
#1173=ADVANCED_FACE('',(#1051),#1111,.T.);
#1174=ADVANCED_FACE('',(#1052),#1112,.T.);
#1175=ADVANCED_FACE('',(#1053),#1113,.T.);
#1176=ADVANCED_FACE('',(#1054),#1114,.T.);
#1177=ADVANCED_FACE('',(#1055),#1115,.F.);
#1178=ADVANCED_FACE('',(#1056),#1116,.F.);
#1179=ADVANCED_FACE('',(#1057),#1117,.T.);
#1180=CLOSED_SHELL('',(#1118,#1119,#1120,#1121,#1122,#1123,#1124,#1125,
#1126,#1127,#1128,#1129,#1130,#1131,#1132,#1133,#1134,#1135,#1136));
#1181=CLOSED_SHELL('',(#1137,#1138,#1139,#1140,#1141,#1142,#1143,#1144,
#1145,#1146,#1147,#1148,#1149,#1150,#1151,#1152,#1153,#1154,#1155,#1156,
#1157,#1158,#1159,#1160,#1161,#1162,#1163,#1164,#1165,#1166,#1167,#1168,
#1169,#1170,#1171,#1172,#1173,#1174,#1175,#1176,#1177,#1178,#1179));
#1182=STYLED_ITEM('',(#1184),#1198);
#1183=STYLED_ITEM('',(#1185),#1199);
#1184=PRESENTATION_STYLE_ASSIGNMENT((#1186));
#1185=PRESENTATION_STYLE_ASSIGNMENT((#1187));
#1186=SURFACE_STYLE_USAGE(.BOTH.,#1188);
#1187=SURFACE_STYLE_USAGE(.BOTH.,#1189);
#1188=SURFACE_SIDE_STYLE('',(#1190));
#1189=SURFACE_SIDE_STYLE('',(#1191));
#1190=SURFACE_STYLE_FILL_AREA(#1192);
#1191=SURFACE_STYLE_FILL_AREA(#1193);
#1192=FILL_AREA_STYLE('',(#1194));
#1193=FILL_AREA_STYLE('',(#1195));
#1194=FILL_AREA_STYLE_COLOUR('',#1196);
#1195=FILL_AREA_STYLE_COLOUR('',#1197);
#1196=COLOUR_RGB('',0.647058823529412,0.647058823529412,0.647058823529412);
#1197=COLOUR_RGB('',0.615686274509804,0.811764705882353,0.929411764705882);
#1198=MANIFOLD_SOLID_BREP('Part 2',#1180);
#1199=MANIFOLD_SOLID_BREP('Part 1',#1181);
#1200=SHAPE_DEFINITION_REPRESENTATION(#1910,#1202);
#1201=SHAPE_DEFINITION_REPRESENTATION(#1911,#1203);
#1202=SHAPE_REPRESENTATION('Part 2',(#1204),#1900);
#1203=SHAPE_REPRESENTATION('Part 1',(#1224),#1901);
#1204=AXIS2_PLACEMENT_3D('',#1551,#1269,#1270);
#1205=AXIS2_PLACEMENT_3D('',#1552,#1271,#1272);
#1206=AXIS2_PLACEMENT_3D('',#1561,#1277,#1278);
#1207=AXIS2_PLACEMENT_3D('',#1567,#1282,#1283);
#1208=AXIS2_PLACEMENT_3D('',#1573,#1287,#1288);
#1209=AXIS2_PLACEMENT_3D('',#1582,#1293,#1294);
#1210=AXIS2_PLACEMENT_3D('',#1588,#1298,#1299);
#1211=AXIS2_PLACEMENT_3D('',#1594,#1303,#1304);
#1212=AXIS2_PLACEMENT_3D('',#1597,#1307,#1308);
#1213=AXIS2_PLACEMENT_3D('',#1600,#1311,#1312);
#1214=AXIS2_PLACEMENT_3D('',#1601,#1313,#1314);
#1215=AXIS2_PLACEMENT_3D('',#1610,#1319,#1320);
#1216=AXIS2_PLACEMENT_3D('',#1616,#1324,#1325);
#1217=AXIS2_PLACEMENT_3D('',#1622,#1329,#1330);
#1218=AXIS2_PLACEMENT_3D('',#1631,#1335,#1336);
#1219=AXIS2_PLACEMENT_3D('',#1637,#1340,#1341);
#1220=AXIS2_PLACEMENT_3D('',#1643,#1345,#1346);
#1221=AXIS2_PLACEMENT_3D('',#1646,#1349,#1350);
#1222=AXIS2_PLACEMENT_3D('',#1649,#1353,#1354);
#1223=AXIS2_PLACEMENT_3D('',#1650,#1355,#1356);
#1224=AXIS2_PLACEMENT_3D('',#1651,#1357,#1358);
#1225=AXIS2_PLACEMENT_3D('',#1652,#1359,#1360);
#1226=AXIS2_PLACEMENT_3D('',#1669,#1369,#1370);
#1227=AXIS2_PLACEMENT_3D('',#1686,#1379,#1380);
#1228=AXIS2_PLACEMENT_3D('',#1687,#1381,#1382);
#1229=AXIS2_PLACEMENT_3D('',#1694,#1386,#1387);
#1230=AXIS2_PLACEMENT_3D('',#1695,#1388,#1389);
#1231=AXIS2_PLACEMENT_3D('',#1702,#1393,#1394);
#1232=AXIS2_PLACEMENT_3D('',#1737,#1413,#1414);
#1233=AXIS2_PLACEMENT_3D('',#1746,#1419,#1420);
#1234=AXIS2_PLACEMENT_3D('',#1755,#1425,#1426);
#1235=AXIS2_PLACEMENT_3D('',#1791,#1432,#1433);
#1236=AXIS2_PLACEMENT_3D('',#1794,#1436,#1437);
#1237=AXIS2_PLACEMENT_3D('',#1797,#1440,#1441);
#1238=AXIS2_PLACEMENT_3D('',#1800,#1444,#1445);
#1239=AXIS2_PLACEMENT_3D('',#1801,#1446,#1447);
#1240=AXIS2_PLACEMENT_3D('',#1802,#1448,#1449);
#1241=AXIS2_PLACEMENT_3D('',#1803,#1450,#1451);
#1242=AXIS2_PLACEMENT_3D('',#1804,#1452,#1453);
#1243=AXIS2_PLACEMENT_3D('',#1805,#1454,#1455);
#1244=AXIS2_PLACEMENT_3D('',#1811,#1460,#1461);
#1245=AXIS2_PLACEMENT_3D('',#1817,#1466,#1467);
#1246=AXIS2_PLACEMENT_3D('',#1818,#1468,#1469);
#1247=AXIS2_PLACEMENT_3D('',#1820,#1471,#1472);
#1248=AXIS2_PLACEMENT_3D('',#1821,#1473,#1474);
#1249=AXIS2_PLACEMENT_3D('',#1822,#1475,#1476);
#1250=AXIS2_PLACEMENT_3D('',#1828,#1480,#1481);
#1251=AXIS2_PLACEMENT_3D('',#1832,#1484,#1485);
#1252=AXIS2_PLACEMENT_3D('',#1836,#1488,#1489);
#1253=AXIS2_PLACEMENT_3D('',#1845,#1494,#1495);
#1254=AXIS2_PLACEMENT_3D('',#1851,#1499,#1500);
#1255=AXIS2_PLACEMENT_3D('',#1857,#1504,#1505);
#1256=AXIS2_PLACEMENT_3D('',#1860,#1508,#1509);
#1257=AXIS2_PLACEMENT_3D('',#1862,#1511,#1512);
#1258=AXIS2_PLACEMENT_3D('',#1863,#1513,#1514);
#1259=AXIS2_PLACEMENT_3D('',#1864,#1515,#1516);
#1260=AXIS2_PLACEMENT_3D('',#1870,#1520,#1521);
#1261=AXIS2_PLACEMENT_3D('',#1874,#1524,#1525);
#1262=AXIS2_PLACEMENT_3D('',#1878,#1528,#1529);
#1263=AXIS2_PLACEMENT_3D('',#1880,#1531,#1532);
#1264=AXIS2_PLACEMENT_3D('',#1881,#1533,#1534);
#1265=AXIS2_PLACEMENT_3D('',#1887,#1538,#1539);
#1266=AXIS2_PLACEMENT_3D('',#1891,#1542,#1543);
#1267=AXIS2_PLACEMENT_3D('',#1895,#1546,#1547);
#1268=AXIS2_PLACEMENT_3D('',#1897,#1549,#1550);
#1269=DIRECTION('',(0.,0.,1.));
#1270=DIRECTION('',(1.,0.,0.));
#1271=DIRECTION('',(1.,0.,0.));
#1272=DIRECTION('',(0.,0.,-1.));
#1273=DIRECTION('',(0.,0.,-1.));
#1274=DIRECTION('',(0.,-1.,0.));
#1275=DIRECTION('',(0.,0.,-1.));
#1276=DIRECTION('',(0.,-1.,0.));
#1277=DIRECTION('',(0.,1.,0.));
#1278=DIRECTION('',(0.,0.,1.));
#1279=DIRECTION('',(1.,0.,0.));
#1280=DIRECTION('',(0.,0.,-1.));
#1281=DIRECTION('',(1.,0.,0.));
#1282=DIRECTION('',(1.,0.,0.));
#1283=DIRECTION('',(0.,0.,-1.));
#1284=DIRECTION('',(0.,-1.,0.));
#1285=DIRECTION('',(0.,0.,-1.));
#1286=DIRECTION('',(0.,-1.,0.));
#1287=DIRECTION('',(1.,0.,0.));
#1288=DIRECTION('',(0.,0.,-1.));
#1289=DIRECTION('',(0.,0.,-1.));
#1290=DIRECTION('',(0.,-1.,0.));
#1291=DIRECTION('',(0.,0.,-1.));
#1292=DIRECTION('',(0.,-1.,0.));
#1293=DIRECTION('',(0.,1.,0.));
#1294=DIRECTION('',(0.,0.,1.));
#1295=DIRECTION('',(1.,0.,0.));
#1296=DIRECTION('',(0.,0.,-1.));
#1297=DIRECTION('',(1.,0.,0.));
#1298=DIRECTION('',(1.,0.,0.));
#1299=DIRECTION('',(0.,0.,-1.));
#1300=DIRECTION('',(0.,-1.,0.));
#1301=DIRECTION('',(0.,0.,-1.));
#1302=DIRECTION('',(0.,-1.,0.));
#1303=DIRECTION('',(0.,1.,0.));
#1304=DIRECTION('',(0.,0.,1.));
#1305=DIRECTION('',(1.,0.,0.));
#1306=DIRECTION('',(1.,0.,0.));
#1307=DIRECTION('',(0.,1.,0.));
#1308=DIRECTION('',(0.,0.,1.));
#1309=DIRECTION('',(1.,0.,0.));
#1310=DIRECTION('',(1.,0.,0.));
#1311=DIRECTION('',(0.,0.,1.));
#1312=DIRECTION('',(1.,0.,0.));
#1313=DIRECTION('',(-0.0054415874997972,-0.999985194453139,0.));
#1314=DIRECTION('',(0.999985194453139,-0.0054415874997972,0.));
#1315=DIRECTION('',(-0.999985194453139,0.0054415874997972,0.));
#1316=DIRECTION('',(0.,0.,-1.));
#1317=DIRECTION('',(-0.999985194453139,0.0054415874997972,0.));
#1318=DIRECTION('',(0.,0.,-1.));
#1319=DIRECTION('',(0.999985194453139,-0.00544158749979614,0.));
#1320=DIRECTION('',(0.00544158749979614,0.999985194453139,0.));
#1321=DIRECTION('',(-0.00544158749979614,-0.999985194453139,0.));
#1322=DIRECTION('',(0.,0.,-1.));
#1323=DIRECTION('',(-0.00544158749979614,-0.999985194453139,0.));
#1324=DIRECTION('',(-0.0054415874997972,-0.999985194453139,0.));
#1325=DIRECTION('',(0.999985194453139,-0.0054415874997972,0.));
#1326=DIRECTION('',(-0.999985194453139,0.0054415874997972,0.));
#1327=DIRECTION('',(0.,0.,-1.));
#1328=DIRECTION('',(-0.999985194453139,0.0054415874997972,0.));
#1329=DIRECTION('',(1.,0.,0.));
#1330=DIRECTION('',(0.,0.,-1.));
#1331=DIRECTION('',(0.,-1.,0.));
#1332=DIRECTION('',(0.,0.,-1.));
#1333=DIRECTION('',(0.,-1.,0.));
#1334=DIRECTION('',(0.,0.,-1.));
#1335=DIRECTION('',(0.,1.,0.));
#1336=DIRECTION('',(0.,0.,1.));
#1337=DIRECTION('',(1.,0.,0.));
#1338=DIRECTION('',(0.,0.,-1.));
#1339=DIRECTION('',(1.,0.,0.));
#1340=DIRECTION('',(1.,9.63735264431559E-17,0.));
#1341=DIRECTION('',(-9.63735264431559E-17,1.,0.));
#1342=DIRECTION('',(9.63735264431559E-17,-1.,0.));
#1343=DIRECTION('',(0.,0.,-1.));
#1344=DIRECTION('',(9.63735264431559E-17,-1.,0.));
#1345=DIRECTION('',(0.,1.,0.));
#1346=DIRECTION('',(0.,0.,1.));
#1347=DIRECTION('',(1.,0.,0.));
#1348=DIRECTION('',(1.,0.,0.));
#1349=DIRECTION('',(0.999985194453139,-0.00544158749979609,0.));
#1350=DIRECTION('',(0.00544158749979609,0.999985194453139,0.));
#1351=DIRECTION('',(-0.00544158749979609,-0.999985194453139,0.));
#1352=DIRECTION('',(-0.00544158749979609,-0.999985194453139,0.));
#1353=DIRECTION('',(0.,0.,1.));
#1354=DIRECTION('',(1.,0.,0.));
#1355=DIRECTION('',(0.,0.,1.));
#1356=DIRECTION('',(1.,0.,0.));
#1357=DIRECTION('',(0.,0.,1.));
#1358=DIRECTION('',(1.,0.,0.));
#1359=DIRECTION('',(0.,0.,-1.));
#1360=DIRECTION('',(-1.,0.,0.));
#1361=DIRECTION('',(0.,-1.,0.));
#1362=DIRECTION('',(-1.,0.,0.));
#1363=DIRECTION('',(0.,-1.,0.));
#1364=DIRECTION('',(-1.,0.,0.));
#1365=DIRECTION('',(0.,1.,0.));
#1366=DIRECTION('',(-1.,0.,0.));
#1367=DIRECTION('',(0.,1.,0.));
#1368=DIRECTION('',(-1.,0.,0.));
#1369=DIRECTION('',(0.,0.,-1.));
#1370=DIRECTION('',(-1.,0.,0.));
#1371=DIRECTION('',(0.,1.,0.));
#1372=DIRECTION('',(-1.,0.,0.));
#1373=DIRECTION('',(0.,-1.,0.));
#1374=DIRECTION('',(-1.,0.,0.));
#1375=DIRECTION('',(0.,1.,0.));
#1376=DIRECTION('',(1.,0.,0.));
#1377=DIRECTION('',(0.,1.,0.));
#1378=DIRECTION('',(1.,0.,0.));
#1379=DIRECTION('',(1.,0.,0.));
#1380=DIRECTION('',(0.,1.,0.));
#1381=DIRECTION('',(1.,0.,0.));
#1382=DIRECTION('',(0.,0.,-1.));
#1383=DIRECTION('',(0.,0.,-1.));
#1384=DIRECTION('',(0.,0.,-1.));
#1385=DIRECTION('',(0.,1.,0.));
#1386=DIRECTION('',(-1.,0.,0.));
#1387=DIRECTION('',(0.,-1.,0.));
#1388=DIRECTION('',(-1.,0.,0.));
#1389=DIRECTION('',(0.,0.,1.));
#1390=DIRECTION('',(0.,0.,1.));
#1391=DIRECTION('',(0.,0.,1.));
#1392=DIRECTION('',(0.,-1.,0.));
#1393=DIRECTION('',(0.,0.,1.));
#1394=DIRECTION('',(1.,0.,0.));
#1395=DIRECTION('',(0.,1.,0.));
#1396=DIRECTION('',(1.,0.,0.));
#1397=DIRECTION('',(1.,0.,0.));
#1398=DIRECTION('',(0.,1.,0.));
#1399=DIRECTION('',(-1.,0.,0.));
#1400=DIRECTION('',(0.,1.,0.));
#1401=DIRECTION('',(1.,0.,0.));
#1402=DIRECTION('',(1.,0.,0.));
#1403=DIRECTION('',(0.,1.,0.));
#1404=DIRECTION('',(-1.,0.,0.));
#1405=DIRECTION('',(0.,-1.,0.));
#1406=DIRECTION('',(1.,0.,0.));
#1407=DIRECTION('',(0.,-1.,0.));
#1408=DIRECTION('',(1.,0.,0.));
#1409=DIRECTION('',(1.,0.,0.));
#1410=DIRECTION('',(0.,-1.,0.));
#1411=DIRECTION('',(1.,0.,0.));
#1412=DIRECTION('',(0.,-1.,0.));
#1413=DIRECTION('',(0.,0.,-1.));
#1414=DIRECTION('',(-1.,0.,0.));
#1415=DIRECTION('',(0.,1.,0.));
#1416=DIRECTION('',(-1.,0.,0.));
#1417=DIRECTION('',(0.,1.,0.));
#1418=DIRECTION('',(-1.,0.,0.));
#1419=DIRECTION('',(0.,-1.,0.));
#1420=DIRECTION('',(1.,0.,0.));
#1421=DIRECTION('',(-1.,0.,0.));
#1422=DIRECTION('',(3.28857530990864E-16,0.,-1.));
#1423=DIRECTION('',(-1.,0.,-1.52503162723236E-16));
#1424=DIRECTION('',(3.28857530990864E-16,0.,-1.));
#1425=DIRECTION('',(0.,0.,-1.));
#1426=DIRECTION('',(-1.,0.,0.));
#1427=DIRECTION('',(0.,-1.,0.));
#1428=DIRECTION('',(-1.,0.,0.));
#1429=DIRECTION('',(0.,-1.,0.));
#1430=DIRECTION('',(-1.,0.,0.));
#1431=DIRECTION('',(-1.,0.,0.));
#1432=DIRECTION('',(0.,-1.,0.));
#1433=DIRECTION('',(0.,0.,-1.));
#1434=DIRECTION('',(0.,0.,1.));
#1435=DIRECTION('',(0.,0.,1.));
#1436=DIRECTION('',(1.,0.,0.));
#1437=DIRECTION('',(0.,1.,0.));
#1438=DIRECTION('',(0.,0.,-1.));
#1439=DIRECTION('',(0.,0.,-1.));
#1440=DIRECTION('',(1.,0.,0.));
#1441=DIRECTION('',(0.,1.,0.));
#1442=DIRECTION('',(0.,0.,1.));
#1443=DIRECTION('',(0.,0.,1.));
#1444=DIRECTION('',(0.,-1.,0.));
#1445=DIRECTION('',(0.,0.,-1.));
#1446=DIRECTION('',(0.,-1.,0.));
#1447=DIRECTION('',(0.,0.,-1.));
#1448=DIRECTION('',(0.,-1.,0.));
#1449=DIRECTION('',(0.,0.,-1.));
#1450=DIRECTION('',(0.,-1.,0.));
#1451=DIRECTION('',(0.,0.,-1.));
#1452=DIRECTION('',(-1.,0.,0.));
#1453=DIRECTION('',(0.,0.,1.));
#1454=DIRECTION('',(1.,0.,3.28857530990864E-16));
#1455=DIRECTION('',(3.28857530990864E-16,0.,-1.));
#1456=DIRECTION('',(0.,-1.,0.));
#1457=DIRECTION('',(0.,0.,1.));
#1458=DIRECTION('',(0.,0.,1.));
#1459=DIRECTION('',(0.,1.,0.));
#1460=DIRECTION('',(1.,0.,3.28857530990864E-16));
#1461=DIRECTION('',(3.28857530990864E-16,0.,-1.));
#1462=DIRECTION('',(0.,0.,1.));
#1463=DIRECTION('',(0.,0.,1.));
#1464=DIRECTION('',(0.,-1.,0.));
#1465=DIRECTION('',(0.,1.,0.));
#1466=DIRECTION('',(1.52503162723236E-16,0.,-1.));
#1467=DIRECTION('',(-1.,0.,-1.52503162723236E-16));
#1468=DIRECTION('',(0.,0.,1.));
#1469=DIRECTION('',(1.,0.,0.));
#1470=DIRECTION('',(1.,0.,0.));
#1471=DIRECTION('',(0.,-1.,0.));
#1472=DIRECTION('',(0.,0.,-1.));
#1473=DIRECTION('',(0.,-1.,0.));
#1474=DIRECTION('',(0.,0.,-1.));
#1475=DIRECTION('',(1.,0.,0.));
#1476=DIRECTION('',(0.,0.,-1.));
#1477=DIRECTION('',(0.,0.,-1.));
#1478=DIRECTION('',(0.,-1.,0.));
#1479=DIRECTION('',(0.,0.,-1.));
#1480=DIRECTION('',(0.,1.,0.));
#1481=DIRECTION('',(0.,0.,1.));
#1482=DIRECTION('',(0.,0.,-1.));
#1483=DIRECTION('',(1.,0.,0.));
#1484=DIRECTION('',(1.,0.,0.));
#1485=DIRECTION('',(0.,0.,-1.));
#1486=DIRECTION('',(0.,0.,-1.));
#1487=DIRECTION('',(0.,-1.,0.));
#1488=DIRECTION('',(1.,0.,0.));
#1489=DIRECTION('',(0.,0.,-1.));
#1490=DIRECTION('',(0.,-1.,0.));
#1491=DIRECTION('',(0.,0.,-1.));
#1492=DIRECTION('',(0.,-1.,0.));
#1493=DIRECTION('',(0.,0.,-1.));
#1494=DIRECTION('',(0.,1.,0.));
#1495=DIRECTION('',(0.,0.,1.));
#1496=DIRECTION('',(1.,0.,0.));
#1497=DIRECTION('',(0.,0.,-1.));
#1498=DIRECTION('',(1.,0.,0.));
#1499=DIRECTION('',(1.,0.,0.));
#1500=DIRECTION('',(0.,0.,-1.));
#1501=DIRECTION('',(0.,-1.,0.));
#1502=DIRECTION('',(0.,0.,-1.));
#1503=DIRECTION('',(0.,-1.,0.));
#1504=DIRECTION('',(0.,1.,0.));
#1505=DIRECTION('',(0.,0.,1.));
#1506=DIRECTION('',(1.,0.,0.));
#1507=DIRECTION('',(1.,0.,0.));
#1508=DIRECTION('',(0.,1.,0.));
#1509=DIRECTION('',(0.,0.,1.));
#1510=DIRECTION('',(1.,0.,0.));
#1511=DIRECTION('',(0.,0.,1.));
#1512=DIRECTION('',(1.,0.,0.));
#1513=DIRECTION('',(0.,0.,1.));
#1514=DIRECTION('',(1.,0.,0.));
#1515=DIRECTION('',(1.,0.,0.));
#1516=DIRECTION('',(0.,0.,-1.));
#1517=DIRECTION('',(0.,0.,1.));
#1518=DIRECTION('',(0.,1.,0.));
#1519=DIRECTION('',(0.,0.,1.));
#1520=DIRECTION('',(0.,-1.,0.));
#1521=DIRECTION('',(0.,0.,-1.));
#1522=DIRECTION('',(0.,0.,1.));
#1523=DIRECTION('',(1.,0.,0.));
#1524=DIRECTION('',(1.,0.,0.));
#1525=DIRECTION('',(0.,0.,-1.));
#1526=DIRECTION('',(0.,0.,1.));
#1527=DIRECTION('',(0.,1.,0.));
#1528=DIRECTION('',(0.,-1.,0.));
#1529=DIRECTION('',(0.,0.,-1.));
#1530=DIRECTION('',(1.,0.,0.));
#1531=DIRECTION('',(0.,0.,1.));
#1532=DIRECTION('',(1.,0.,0.));
#1533=DIRECTION('',(1.,0.,0.));
#1534=DIRECTION('',(0.,0.,-1.));
#1535=DIRECTION('',(0.,0.,1.));
#1536=DIRECTION('',(0.,1.,0.));
#1537=DIRECTION('',(0.,0.,1.));
#1538=DIRECTION('',(0.,1.,0.));
#1539=DIRECTION('',(0.,0.,1.));
#1540=DIRECTION('',(0.,0.,1.));
#1541=DIRECTION('',(-1.,0.,0.));
#1542=DIRECTION('',(1.,0.,0.));
#1543=DIRECTION('',(0.,0.,-1.));
#1544=DIRECTION('',(0.,0.,1.));
#1545=DIRECTION('',(0.,1.,0.));
#1546=DIRECTION('',(0.,1.,0.));
#1547=DIRECTION('',(0.,0.,1.));
#1548=DIRECTION('',(-1.,0.,0.));
#1549=DIRECTION('',(0.,0.,1.));
#1550=DIRECTION('',(1.,0.,0.));
#1551=CARTESIAN_POINT('',(0.,0.,0.));
#1552=CARTESIAN_POINT('',(-0.0115537461638451,-0.0805311145067215,0.0592));
#1553=CARTESIAN_POINT('',(-0.0115537461638451,-0.0910311145067215,0.0592));
#1554=CARTESIAN_POINT('',(-0.0115537461638451,-0.0910311145067215,0.0592));
#1555=CARTESIAN_POINT('',(-0.0115537461638451,-0.0910311145067215,0.055));
#1556=CARTESIAN_POINT('',(-0.0115537461638451,-0.0805311145067215,0.055));
#1557=CARTESIAN_POINT('',(-0.0115537461638451,-0.0700311145067215,0.055));
#1558=CARTESIAN_POINT('',(-0.0115537461638451,-0.0700311145067215,0.0592));
#1559=CARTESIAN_POINT('',(-0.0115537461638451,-0.0700311145067215,0.0592));
#1560=CARTESIAN_POINT('',(-0.0115537461638451,-0.0805311145067215,0.0592));
#1561=CARTESIAN_POINT('',(4.62538361549365E-5,-0.0700311145067215,0.0592));
#1562=CARTESIAN_POINT('',(4.62538361549365E-5,-0.0700311145067215,0.055));
#1563=CARTESIAN_POINT('',(0.0116462538361549,-0.0700311145067215,0.055));
#1564=CARTESIAN_POINT('',(0.0116462538361549,-0.0700311145067215,0.0592));
#1565=CARTESIAN_POINT('',(0.0116462538361549,-0.0700311145067215,0.0592));
#1566=CARTESIAN_POINT('',(4.62538361549365E-5,-0.0700311145067215,0.0592));
#1567=CARTESIAN_POINT('',(0.0116462538361549,-0.0805311145067215,0.0592));
#1568=CARTESIAN_POINT('',(0.0116462538361549,-0.0805311145067215,0.055));
#1569=CARTESIAN_POINT('',(0.0116462538361549,-0.0910311145067215,0.055));
#1570=CARTESIAN_POINT('',(0.0116462538361549,-0.0910311145067215,0.0592));
#1571=CARTESIAN_POINT('',(0.0116462538361549,-0.0910311145067215,0.0592));
#1572=CARTESIAN_POINT('',(0.0116462538361549,-0.0805311145067215,0.0592));
#1573=CARTESIAN_POINT('',(0.0126462538361549,-0.0805311145067215,0.0592));
#1574=CARTESIAN_POINT('',(0.0126462538361549,-0.0920311145067215,0.0592));
#1575=CARTESIAN_POINT('',(0.0126462538361549,-0.0920311145067215,0.0602));
#1576=CARTESIAN_POINT('',(0.0126462538361549,-0.0920311145067215,0.055));
#1577=CARTESIAN_POINT('',(0.0126462538361549,-0.0805311145067215,0.055));
#1578=CARTESIAN_POINT('',(0.0126462538361549,-0.0690311145067215,0.055));
#1579=CARTESIAN_POINT('',(0.0126462538361549,-0.0690311145067215,0.0592));
#1580=CARTESIAN_POINT('',(0.0126462538361549,-0.0690311145067215,0.0602));
#1581=CARTESIAN_POINT('',(0.0126462538361549,-0.0805311145067215,0.0602));
#1582=CARTESIAN_POINT('',(4.62538361549365E-5,-0.0690311145067215,0.0592));
#1583=CARTESIAN_POINT('',(4.62538361549365E-5,-0.0690311145067215,0.055));
#1584=CARTESIAN_POINT('',(-0.0125537461638451,-0.0690311145067215,0.055));
#1585=CARTESIAN_POINT('',(-0.0125537461638451,-0.0690311145067215,0.0592));
#1586=CARTESIAN_POINT('',(-0.0125537461638451,-0.0690311145067215,0.0602));
#1587=CARTESIAN_POINT('',(4.62538361549365E-5,-0.0690311145067215,0.0602));
#1588=CARTESIAN_POINT('',(-0.0125537461638451,-0.0805311145067215,0.0592));
#1589=CARTESIAN_POINT('',(-0.0125537461638451,-0.0805311145067215,0.055));
#1590=CARTESIAN_POINT('',(-0.0125537461638451,-0.0920311145067215,0.055));
#1591=CARTESIAN_POINT('',(-0.0125537461638451,-0.0920311145067215,0.0592));
#1592=CARTESIAN_POINT('',(-0.0125537461638451,-0.0920311145067215,0.0602));
#1593=CARTESIAN_POINT('',(-0.0125537461638451,-0.0805311145067215,0.0602));
#1594=CARTESIAN_POINT('',(4.62538361549365E-5,-0.0920311145067215,0.0592));
#1595=CARTESIAN_POINT('',(4.62538361549365E-5,-0.0920311145067215,0.055));
#1596=CARTESIAN_POINT('',(4.62538361549365E-5,-0.0920311145067215,0.0602));
#1597=CARTESIAN_POINT('',(4.62538361549365E-5,-0.0910311145067215,0.0592));
#1598=CARTESIAN_POINT('',(4.62538361549365E-5,-0.0910311145067215,0.055));
#1599=CARTESIAN_POINT('',(4.62538361549365E-5,-0.0910311145067215,0.0592));
#1600=CARTESIAN_POINT('',(0.,-0.0708953992069452,0.055));
#1601=CARTESIAN_POINT('',(0.00763905601270688,-0.0712981298829313,0.0602));
#1602=CARTESIAN_POINT('',(0.00763905601270688,-0.0712981298829313,0.0592));
#1603=CARTESIAN_POINT('',(0.00963902640161315,-0.0713090130579309,0.0592));
#1604=CARTESIAN_POINT('',(0.0056390856238006,-0.0712872467079317,0.0592));
#1605=CARTESIAN_POINT('',(0.00963902640161315,-0.0713090130579309,0.0602));
#1606=CARTESIAN_POINT('',(0.00963902640161315,-0.0713090130579309,0.0602));
#1607=CARTESIAN_POINT('',(0.00763905601270688,-0.0712981298829313,0.0602));
#1608=CARTESIAN_POINT('',(0.0056390856238006,-0.0712872467079317,0.0602));
#1609=CARTESIAN_POINT('',(0.0056390856238006,-0.0712872467079317,0.0602));
#1610=CARTESIAN_POINT('',(0.00959005211411499,-0.0803088798080091,0.0602));
#1611=CARTESIAN_POINT('',(0.00959005211411499,-0.0803088798080091,0.0592));
#1612=CARTESIAN_POINT('',(0.00954107782661683,-0.0893087465580874,0.0592));
#1613=CARTESIAN_POINT('',(0.00954107782661683,-0.0893087465580874,0.0602));
#1614=CARTESIAN_POINT('',(0.00954107782661683,-0.0893087465580874,0.0602));
#1615=CARTESIAN_POINT('',(0.00959005211411499,-0.0803088798080091,0.0602));
#1616=CARTESIAN_POINT('',(0.00754110743771055,-0.0892978633830878,0.0602));
#1617=CARTESIAN_POINT('',(0.00754110743771055,-0.0892978633830878,0.0592));
#1618=CARTESIAN_POINT('',(0.00554113704880427,-0.0892869802080882,0.0592));
#1619=CARTESIAN_POINT('',(0.00554113704880427,-0.0892869802080882,0.0602));
#1620=CARTESIAN_POINT('',(0.00554113704880427,-0.0892869802080882,0.0602));
#1621=CARTESIAN_POINT('',(0.00754110743771055,-0.0892978633830878,0.0602));
#1622=CARTESIAN_POINT('',(-0.00954244732484221,-0.0802568238377571,0.0602));
#1623=CARTESIAN_POINT('',(-0.00954244732484221,-0.0802568238377571,0.0592));
#1624=CARTESIAN_POINT('',(-0.00954244732484221,-0.0712568238377571,0.0592));
#1625=CARTESIAN_POINT('',(-0.00954244732484221,-0.0892568238377571,0.0592));
#1626=CARTESIAN_POINT('',(-0.00954244732484221,-0.0712568238377571,0.0602));
#1627=CARTESIAN_POINT('',(-0.00954244732484221,-0.0712568238377571,0.0602));
#1628=CARTESIAN_POINT('',(-0.00954244732484221,-0.0802568238377571,0.0602));
#1629=CARTESIAN_POINT('',(-0.00954244732484221,-0.0892568238377571,0.0602));
#1630=CARTESIAN_POINT('',(-0.00954244732484221,-0.0892568238377571,0.0602));
#1631=CARTESIAN_POINT('',(-0.00754244732484222,-0.0712568238377571,0.0602));
#1632=CARTESIAN_POINT('',(-0.00754244732484222,-0.0712568238377571,0.0592));
#1633=CARTESIAN_POINT('',(-0.00554244732484222,-0.0712568238377571,0.0592));
#1634=CARTESIAN_POINT('',(-0.00554244732484222,-0.0712568238377571,0.0602));
#1635=CARTESIAN_POINT('',(-0.00554244732484222,-0.0712568238377571,0.0602));
#1636=CARTESIAN_POINT('',(-0.00754244732484222,-0.0712568238377571,0.0602));
#1637=CARTESIAN_POINT('',(-0.00554244732484221,-0.0802568238377571,0.0602));
#1638=CARTESIAN_POINT('',(-0.00554244732484221,-0.0802568238377571,0.0592));
#1639=CARTESIAN_POINT('',(-0.00554244732484221,-0.0892568238377571,0.0592));
#1640=CARTESIAN_POINT('',(-0.00554244732484221,-0.0892568238377571,0.0602));
#1641=CARTESIAN_POINT('',(-0.00554244732484221,-0.0892568238377571,0.0602));
#1642=CARTESIAN_POINT('',(-0.00554244732484221,-0.0802568238377571,0.0602));
#1643=CARTESIAN_POINT('',(-0.00754244732484221,-0.0892568238377571,0.0602));
#1644=CARTESIAN_POINT('',(-0.00754244732484221,-0.0892568238377571,0.0592));
#1645=CARTESIAN_POINT('',(-0.00754244732484221,-0.0892568238377571,0.0602));
#1646=CARTESIAN_POINT('',(0.00559011133630243,-0.0802871134580099,0.0602));
#1647=CARTESIAN_POINT('',(0.00559011133630243,-0.0802871134580099,0.0592));
#1648=CARTESIAN_POINT('',(0.00559011133630243,-0.0802871134580099,0.0602));
#1649=CARTESIAN_POINT('',(4.62538361549365E-5,-0.0805311145067215,0.0602));
#1650=CARTESIAN_POINT('',(4.62538361549365E-5,-0.0805311145067215,0.0592));
#1651=CARTESIAN_POINT('',(0.,0.,0.));
#1652=CARTESIAN_POINT('',(0.045,-0.0791221276760785,0.019));
#1653=CARTESIAN_POINT('',(-0.0252,-0.0491860638380393,0.019));
#1654=CARTESIAN_POINT('',(-0.0252,-0.0678721276760785,0.019));
#1655=CARTESIAN_POINT('',(-0.0252,-0.0903721276760785,0.019));
#1656=CARTESIAN_POINT('',(0.045,-0.0678721276760785,0.019));
#1657=CARTESIAN_POINT('',(-0.045,-0.0678721276760785,0.019));
#1658=CARTESIAN_POINT('',(-0.045,-0.0791221276760785,0.019));
#1659=CARTESIAN_POINT('',(-0.045,-0.0903721276760785,0.019));
#1660=CARTESIAN_POINT('',(0.045,-0.0903721276760785,0.019));
#1661=CARTESIAN_POINT('',(-0.0376241593360901,-0.0791221276760785,0.019));
#1662=CARTESIAN_POINT('',(-0.0376241593360901,-0.0817221276760785,0.019));
#1663=CARTESIAN_POINT('',(-0.0376241593360901,-0.0765221276760785,0.019));
#1664=CARTESIAN_POINT('',(-0.0346241593360901,-0.0765221276760785,0.019));
#1665=CARTESIAN_POINT('',(-0.0316241593360901,-0.0765221276760785,0.019));
#1666=CARTESIAN_POINT('',(-0.0316241593360901,-0.0791221276760785,0.019));
#1667=CARTESIAN_POINT('',(-0.0316241593360901,-0.0817221276760785,0.019));
#1668=CARTESIAN_POINT('',(-0.0346241593360901,-0.0817221276760785,0.019));
#1669=CARTESIAN_POINT('',(0.045,-0.0791221276760785,0.019));
#1670=CARTESIAN_POINT('',(0.0252,-0.0491860638380393,0.019));
#1671=CARTESIAN_POINT('',(0.0252,-0.0903721276760785,0.019));
#1672=CARTESIAN_POINT('',(0.0252,-0.0678721276760785,0.019));
#1673=CARTESIAN_POINT('',(0.045,-0.0903721276760785,0.019));
#1674=CARTESIAN_POINT('',(0.045,-0.0903721276760785,0.019));
#1675=CARTESIAN_POINT('',(0.045,-0.0791221276760785,0.019));
#1676=CARTESIAN_POINT('',(0.045,-0.0678721276760785,0.019));
#1677=CARTESIAN_POINT('',(0.045,-0.0678721276760785,0.019));
#1678=CARTESIAN_POINT('',(0.0316241593360901,-0.0791221276760785,0.019));
#1679=CARTESIAN_POINT('',(0.0316241593360901,-0.0817221276760785,0.019));
#1680=CARTESIAN_POINT('',(0.0316241593360901,-0.0765221276760785,0.019));
#1681=CARTESIAN_POINT('',(0.0346241593360901,-0.0765221276760785,0.019));
#1682=CARTESIAN_POINT('',(0.0376241593360901,-0.0765221276760785,0.019));
#1683=CARTESIAN_POINT('',(0.0376241593360901,-0.0791221276760785,0.019));
#1684=CARTESIAN_POINT('',(0.0376241593360901,-0.0817221276760785,0.019));
#1685=CARTESIAN_POINT('',(0.0346241593360901,-0.0817221276760785,0.019));
#1686=CARTESIAN_POINT('',(0.0252,-0.0491860638380393,0.03225));
#1687=CARTESIAN_POINT('',(0.0252,-0.0792221276760785,0.03245));
#1688=CARTESIAN_POINT('',(0.0252,-0.0792221276760785,0.02945));
#1689=CARTESIAN_POINT('',(0.0252,-0.0903721276760785,0.03225));
#1690=CARTESIAN_POINT('',(0.0252,-0.0903721276760785,0.055));
#1691=CARTESIAN_POINT('',(0.0252,-0.0678721276760785,0.03225));
#1692=CARTESIAN_POINT('',(0.0252,-0.0678721276760785,0.055));
#1693=CARTESIAN_POINT('',(0.0252,-0.0708953992069452,0.055));
#1694=CARTESIAN_POINT('',(-0.0252,-0.0491860638380393,0.03225));
#1695=CARTESIAN_POINT('',(-0.0252,-0.0792221276760785,0.03245));
#1696=CARTESIAN_POINT('',(-0.0252,-0.0792221276760785,0.03545));
#1697=CARTESIAN_POINT('',(-0.0252,-0.0678721276760785,0.03225));
#1698=CARTESIAN_POINT('',(-0.0252,-0.0678721276760785,0.055));
#1699=CARTESIAN_POINT('',(-0.0252,-0.0903721276760785,0.03225));
#1700=CARTESIAN_POINT('',(-0.0252,-0.0903721276760785,0.055));
#1701=CARTESIAN_POINT('',(-0.0252,-0.0708953992069452,0.055));
#1702=CARTESIAN_POINT('',(0.045,-0.0708953992069452,0.055));
#1703=CARTESIAN_POINT('',(-0.045,-0.0708953992069452,0.055));
#1704=CARTESIAN_POINT('',(-0.045,-0.0678721276760785,0.055));
#1705=CARTESIAN_POINT('',(-0.045,-0.0434186707378118,0.055));
#1706=CARTESIAN_POINT('',(0.045,-0.0678721276760785,0.055));
#1707=CARTESIAN_POINT('',(0.045,-0.0903721276760785,0.055));
#1708=CARTESIAN_POINT('',(-0.045,-0.0903721276760785,0.055));
#1709=CARTESIAN_POINT('',(-0.045,-0.0708953992069452,0.055));
#1710=CARTESIAN_POINT('',(-0.045,-0.0983721276760785,0.055));
#1711=CARTESIAN_POINT('',(0.045,-0.0983721276760785,0.055));
#1712=CARTESIAN_POINT('',(0.045,-0.0983721276760785,0.055));
#1713=CARTESIAN_POINT('',(0.045,-0.0708953992069452,0.055));
#1714=CARTESIAN_POINT('',(0.045,-0.0903721276760785,0.055));
#1715=CARTESIAN_POINT('',(0.045,-0.0903721276760785,0.055));
#1716=CARTESIAN_POINT('',(0.045,-0.0678721276760785,0.055));
#1717=CARTESIAN_POINT('',(0.045,-0.0678721276760785,0.055));
#1718=CARTESIAN_POINT('',(0.045,-0.0708953992069452,0.055));
#1719=CARTESIAN_POINT('',(0.045,-0.0434186707378118,0.055));
#1720=CARTESIAN_POINT('',(0.045,-0.0434186707378118,0.055));
#1721=CARTESIAN_POINT('',(-0.0225,-0.056726117670536,0.055));
#1722=CARTESIAN_POINT('',(-0.0225,-0.050726117670536,0.055));
#1723=CARTESIAN_POINT('',(-0.0225,-0.062726117670536,0.055));
#1724=CARTESIAN_POINT('',(0.00025,-0.050726117670536,0.055));
#1725=CARTESIAN_POINT('',(0.023,-0.050726117670536,0.055));
#1726=CARTESIAN_POINT('',(0.023,-0.056726117670536,0.055));
#1727=CARTESIAN_POINT('',(0.023,-0.062726117670536,0.055));
#1728=CARTESIAN_POINT('',(0.00025,-0.062726117670536,0.055));
#1729=CARTESIAN_POINT('',(4.62538361549365E-5,-0.0700311145067215,0.055));
#1730=CARTESIAN_POINT('',(-0.0115537461638451,-0.0700311145067215,0.055));
#1731=CARTESIAN_POINT('',(0.0116462538361549,-0.0700311145067215,0.055));
#1732=CARTESIAN_POINT('',(0.0116462538361549,-0.0805311145067215,0.055));
#1733=CARTESIAN_POINT('',(0.0116462538361549,-0.0910311145067215,0.055));
#1734=CARTESIAN_POINT('',(4.62538361549365E-5,-0.0910311145067215,0.055));
#1735=CARTESIAN_POINT('',(-0.0115537461638451,-0.0910311145067215,0.055));
#1736=CARTESIAN_POINT('',(-0.0115537461638451,-0.0805311145067215,0.055));
#1737=CARTESIAN_POINT('',(0.00025,-0.0521,0.045));
#1738=CARTESIAN_POINT('',(0.023,-0.0521,0.045));
#1739=CARTESIAN_POINT('',(0.023,-0.050726117670536,0.045));
#1740=CARTESIAN_POINT('',(0.023,-0.0384234336642759,0.045));
#1741=CARTESIAN_POINT('',(0.00025,-0.050726117670536,0.045));
#1742=CARTESIAN_POINT('',(-0.0225,-0.050726117670536,0.045));
#1743=CARTESIAN_POINT('',(-0.0225,-0.0521,0.045));
#1744=CARTESIAN_POINT('',(-0.0225,-0.0384234336642768,0.045));
#1745=CARTESIAN_POINT('',(0.045,-0.0384234336642759,0.045));
#1746=CARTESIAN_POINT('',(0.000250000000000004,-0.0521,0.03445));
#1747=CARTESIAN_POINT('',(0.000250000000000004,-0.0521,0.0349));
#1748=CARTESIAN_POINT('',(0.023,-0.0521,0.0349));
#1749=CARTESIAN_POINT('',(-0.0225,-0.0521,0.0349));
#1750=CARTESIAN_POINT('',(0.023,-0.0521,0.03445));
#1751=CARTESIAN_POINT('',(0.023,-0.0521,0.0239));
#1752=CARTESIAN_POINT('',(0.000250000000000007,-0.0521,0.0239));
#1753=CARTESIAN_POINT('',(-0.0225,-0.0521,0.0239));
#1754=CARTESIAN_POINT('',(-0.0225,-0.0521,0.03445));
#1755=CARTESIAN_POINT('',(0.045,-0.0491860638380393,0.));
#1756=CARTESIAN_POINT('',(0.045,-0.0491860638380393,0.));
#1757=CARTESIAN_POINT('',(0.045,0.,0.));
#1758=CARTESIAN_POINT('',(0.045,-0.0983721276760785,-6.93889390390723E-18));
#1759=CARTESIAN_POINT('',(0.045,-0.0983721276760785,-6.93889390390723E-18));
#1760=CARTESIAN_POINT('',(-0.045,-0.0983721276760785,-6.93889390390723E-18));
#1761=CARTESIAN_POINT('',(-0.045,-0.0491860638380393,0.));
#1762=CARTESIAN_POINT('',(-0.045,0.,0.));
#1763=CARTESIAN_POINT('',(0.045,0.,0.));
#1764=CARTESIAN_POINT('',(0.045,-0.0434186707378118,0.055));
#1765=CARTESIAN_POINT('',(-0.045,-0.0434186707378118,0.055));
#1766=CARTESIAN_POINT('',(0.045,-0.0356987999140271,0.0404304885397705));
#1767=CARTESIAN_POINT('',(-0.045,-0.0356987999140271,0.0404304885397705));
#1768=CARTESIAN_POINT('',(0.045,-0.0227363830235511,0.00732637512502368));
#1769=CARTESIAN_POINT('',(-0.045,-0.0227363830235511,0.00732637512502368));
#1770=CARTESIAN_POINT('',(0.045,0.,0.));
#1771=CARTESIAN_POINT('',(-0.045,0.,0.));
#1772=CARTESIAN_POINT('',(0.023,-0.0434186707378118,0.055));
#1773=CARTESIAN_POINT('',(0.023,-0.0356987999140271,0.0404304885397705));
#1774=CARTESIAN_POINT('',(0.023,-0.0227363830235511,0.00732637512502368));
#1775=CARTESIAN_POINT('',(0.023,0.,0.));
#1776=CARTESIAN_POINT('',(0.023,-0.0267695583323223,0.0239));
#1777=CARTESIAN_POINT('',(-0.0225,-0.0434186707378118,0.055));
#1778=CARTESIAN_POINT('',(-0.0225,-0.0356987999140271,0.0404304885397705));
#1779=CARTESIAN_POINT('',(-0.0225,-0.0227363830235511,0.00732637512502368));
#1780=CARTESIAN_POINT('',(-0.0225,0.,0.));
#1781=CARTESIAN_POINT('',(-0.0225,-0.0267695583323223,0.0239));
#1782=CARTESIAN_POINT('',(0.045,-0.0267695583323223,0.0239));
#1783=CARTESIAN_POINT('',(-0.045,-0.0434186707378118,0.055));
#1784=CARTESIAN_POINT('',(-0.045,-0.0356987999140271,0.0404304885397705));
#1785=CARTESIAN_POINT('',(-0.045,-0.0227363830235511,0.00732637512502368));
#1786=CARTESIAN_POINT('',(-0.045,0.,0.));
#1787=CARTESIAN_POINT('',(0.045,-0.0434186707378118,0.055));
#1788=CARTESIAN_POINT('',(0.045,-0.0356987999140271,0.0404304885397705));
#1789=CARTESIAN_POINT('',(0.045,-0.0227363830235511,0.00732637512502368));
#1790=CARTESIAN_POINT('',(0.045,0.,0.));
#1791=CARTESIAN_POINT('',(0.045,-0.0983721276760785,0.0275));
#1792=CARTESIAN_POINT('',(-0.045,-0.0983721276760785,0.0275));
#1793=CARTESIAN_POINT('',(0.045,-0.0983721276760785,0.0275));
#1794=CARTESIAN_POINT('',(0.045,-0.0491860638380393,0.0275));
#1795=CARTESIAN_POINT('',(0.045,-0.0903721276760785,0.03225));
#1796=CARTESIAN_POINT('',(0.045,-0.0678721276760785,0.03225));
#1797=CARTESIAN_POINT('',(-0.045,-0.0491860638380393,0.0275));
#1798=CARTESIAN_POINT('',(-0.045,-0.0903721276760785,0.03225));
#1799=CARTESIAN_POINT('',(-0.045,-0.0678721276760785,0.03225));
#1800=CARTESIAN_POINT('',(0.0252,-0.0903721276760785,0.03225));
#1801=CARTESIAN_POINT('',(0.0252,-0.0678721276760785,0.03225));
#1802=CARTESIAN_POINT('',(-0.0252,-0.0678721276760785,0.03225));
#1803=CARTESIAN_POINT('',(-0.0252,-0.0903721276760785,0.03225));
#1804=CARTESIAN_POINT('',(0.0308,-0.0792221276760785,0.03245));
#1805=CARTESIAN_POINT('',(0.023,-0.0521,0.03445));
#1806=CARTESIAN_POINT('',(0.023,-0.056726117670536,0.0349));
#1807=CARTESIAN_POINT('',(0.023,-0.062726117670536,0.0349));
#1808=CARTESIAN_POINT('',(0.023,-0.062726117670536,0.0349));
#1809=CARTESIAN_POINT('',(0.023,-0.050726117670536,0.0349));
#1810=CARTESIAN_POINT('',(0.023,-0.0521,0.0239));
#1811=CARTESIAN_POINT('',(-0.0225,-0.0521,0.03445));
#1812=CARTESIAN_POINT('',(-0.0225,-0.050726117670536,0.0349));
#1813=CARTESIAN_POINT('',(-0.0225,-0.062726117670536,0.0349));
#1814=CARTESIAN_POINT('',(-0.0225,-0.062726117670536,0.0349));
#1815=CARTESIAN_POINT('',(-0.0225,-0.056726117670536,0.0349));
#1816=CARTESIAN_POINT('',(-0.0225,-0.0521,0.0239));
#1817=CARTESIAN_POINT('',(0.000250000000000007,-0.0521,0.0239));
#1818=CARTESIAN_POINT('',(0.,-0.0708953992069452,0.0349));
#1819=CARTESIAN_POINT('',(0.00025,-0.062726117670536,0.0349));
#1820=CARTESIAN_POINT('',(0.00025,-0.050726117670536,0.0349));
#1821=CARTESIAN_POINT('',(0.00025,-0.062726117670536,0.0349));
#1822=CARTESIAN_POINT('',(0.0116462538361549,-0.0805311145067215,0.0592));
#1823=CARTESIAN_POINT('',(0.0116462538361549,-0.0700311145067215,0.0592));
#1824=CARTESIAN_POINT('',(0.0116462538361549,-0.0700311145067215,0.0592));
#1825=CARTESIAN_POINT('',(0.0116462538361549,-0.0805311145067215,0.0592));
#1826=CARTESIAN_POINT('',(0.0116462538361549,-0.0910311145067215,0.0592));
#1827=CARTESIAN_POINT('',(0.0116462538361549,-0.0910311145067215,0.0592));
#1828=CARTESIAN_POINT('',(4.62538361549365E-5,-0.0700311145067215,0.0592));
#1829=CARTESIAN_POINT('',(-0.0115537461638451,-0.0700311145067215,0.0592));
#1830=CARTESIAN_POINT('',(-0.0115537461638451,-0.0700311145067215,0.0592));
#1831=CARTESIAN_POINT('',(4.62538361549365E-5,-0.0700311145067215,0.0592));
#1832=CARTESIAN_POINT('',(-0.0115537461638451,-0.0805311145067215,0.0592));
#1833=CARTESIAN_POINT('',(-0.0115537461638451,-0.0910311145067215,0.0592));
#1834=CARTESIAN_POINT('',(-0.0115537461638451,-0.0910311145067215,0.0592));
#1835=CARTESIAN_POINT('',(-0.0115537461638451,-0.0805311145067215,0.0592));
#1836=CARTESIAN_POINT('',(-0.00955374616384506,-0.0805311145067215,0.0592));
#1837=CARTESIAN_POINT('',(-0.00955374616384506,-0.0805311145067215,0.055));
#1838=CARTESIAN_POINT('',(-0.00955374616384506,-0.0720311145067215,0.055));
#1839=CARTESIAN_POINT('',(-0.00955374616384506,-0.0890311145067215,0.055));
#1840=CARTESIAN_POINT('',(-0.00955374616384506,-0.0720311145067215,0.0592));
#1841=CARTESIAN_POINT('',(-0.00955374616384506,-0.0720311145067215,0.0592));
#1842=CARTESIAN_POINT('',(-0.00955374616384506,-0.0805311145067215,0.0592));
#1843=CARTESIAN_POINT('',(-0.00955374616384506,-0.0890311145067215,0.0592));
#1844=CARTESIAN_POINT('',(-0.00955374616384506,-0.0890311145067215,0.0592));
#1845=CARTESIAN_POINT('',(4.62538361549365E-5,-0.0720311145067215,0.0592));
#1846=CARTESIAN_POINT('',(4.62538361549365E-5,-0.0720311145067215,0.055));
#1847=CARTESIAN_POINT('',(0.00964625383615494,-0.0720311145067215,0.055));
#1848=CARTESIAN_POINT('',(0.00964625383615494,-0.0720311145067215,0.0592));
#1849=CARTESIAN_POINT('',(0.00964625383615494,-0.0720311145067215,0.0592));
#1850=CARTESIAN_POINT('',(4.62538361549365E-5,-0.0720311145067215,0.0592));
#1851=CARTESIAN_POINT('',(0.00964625383615494,-0.0805311145067215,0.0592));
#1852=CARTESIAN_POINT('',(0.00964625383615494,-0.0805311145067215,0.055));
#1853=CARTESIAN_POINT('',(0.00964625383615494,-0.0890311145067215,0.055));
#1854=CARTESIAN_POINT('',(0.00964625383615494,-0.0890311145067215,0.0592));
#1855=CARTESIAN_POINT('',(0.00964625383615494,-0.0890311145067215,0.0592));
#1856=CARTESIAN_POINT('',(0.00964625383615494,-0.0805311145067215,0.0592));
#1857=CARTESIAN_POINT('',(4.62538361549365E-5,-0.0890311145067215,0.0592));
#1858=CARTESIAN_POINT('',(4.62538361549365E-5,-0.0890311145067215,0.055));
#1859=CARTESIAN_POINT('',(4.62538361549365E-5,-0.0890311145067215,0.0592));
#1860=CARTESIAN_POINT('',(4.62538361549365E-5,-0.0910311145067215,0.0592));
#1861=CARTESIAN_POINT('',(4.62538361549365E-5,-0.0910311145067215,0.0592));
#1862=CARTESIAN_POINT('',(0.,-0.0708953992069452,0.0592));
#1863=CARTESIAN_POINT('',(0.045,-0.0708953992069452,0.055));
#1864=CARTESIAN_POINT('',(0.0316241593360901,-0.0791221276760785,0.005));
#1865=CARTESIAN_POINT('',(0.0316241593360901,-0.0817221276760785,0.005));
#1866=CARTESIAN_POINT('',(0.0316241593360901,-0.0817221276760785,0.005));
#1867=CARTESIAN_POINT('',(0.0316241593360901,-0.0791221276760785,0.005));
#1868=CARTESIAN_POINT('',(0.0316241593360901,-0.0765221276760785,0.005));
#1869=CARTESIAN_POINT('',(0.0316241593360901,-0.0765221276760785,0.005));
#1870=CARTESIAN_POINT('',(0.0346241593360901,-0.0817221276760785,0.005));
#1871=CARTESIAN_POINT('',(0.0376241593360901,-0.0817221276760785,0.005));
#1872=CARTESIAN_POINT('',(0.0376241593360901,-0.0817221276760785,0.005));
#1873=CARTESIAN_POINT('',(0.0346241593360901,-0.0817221276760785,0.005));
#1874=CARTESIAN_POINT('',(0.0376241593360901,-0.0791221276760785,0.005));
#1875=CARTESIAN_POINT('',(0.0376241593360901,-0.0765221276760785,0.005));
#1876=CARTESIAN_POINT('',(0.0376241593360901,-0.0765221276760785,0.005));
#1877=CARTESIAN_POINT('',(0.0376241593360901,-0.0791221276760785,0.005));
#1878=CARTESIAN_POINT('',(0.0346241593360901,-0.0765221276760785,0.005));
#1879=CARTESIAN_POINT('',(0.0346241593360901,-0.0765221276760785,0.005));
#1880=CARTESIAN_POINT('',(0.,-0.0791221276760785,0.005));
#1881=CARTESIAN_POINT('',(-0.0376241593360901,-0.0791221276760785,0.005));
#1882=CARTESIAN_POINT('',(-0.0376241593360901,-0.0817221276760785,0.005));
#1883=CARTESIAN_POINT('',(-0.0376241593360901,-0.0817221276760785,0.005));
#1884=CARTESIAN_POINT('',(-0.0376241593360901,-0.0791221276760785,0.005));
#1885=CARTESIAN_POINT('',(-0.0376241593360901,-0.0765221276760785,0.005));
#1886=CARTESIAN_POINT('',(-0.0376241593360901,-0.0765221276760785,0.005));
#1887=CARTESIAN_POINT('',(-0.0346241593360901,-0.0817221276760785,0.005));
#1888=CARTESIAN_POINT('',(-0.0316241593360901,-0.0817221276760785,0.005));
#1889=CARTESIAN_POINT('',(-0.0316241593360901,-0.0817221276760785,0.005));
#1890=CARTESIAN_POINT('',(-0.0346241593360901,-0.0817221276760785,0.005));
#1891=CARTESIAN_POINT('',(-0.0316241593360901,-0.0791221276760785,0.005));
#1892=CARTESIAN_POINT('',(-0.0316241593360901,-0.0765221276760785,0.005));
#1893=CARTESIAN_POINT('',(-0.0316241593360901,-0.0765221276760785,0.005));
#1894=CARTESIAN_POINT('',(-0.0316241593360901,-0.0791221276760785,0.005));
#1895=CARTESIAN_POINT('',(-0.0346241593360901,-0.0765221276760785,0.005));
#1896=CARTESIAN_POINT('',(-0.0346241593360901,-0.0765221276760785,0.005));
#1897=CARTESIAN_POINT('',(0.,-0.0791221276760785,0.005));
#1898=MECHANICAL_DESIGN_GEOMETRIC_PRESENTATION_REPRESENTATION('',(#1182),
#1900);
#1899=MECHANICAL_DESIGN_GEOMETRIC_PRESENTATION_REPRESENTATION('',(#1183),
#1901);
#1900=(
GEOMETRIC_REPRESENTATION_CONTEXT(3)
GLOBAL_UNCERTAINTY_ASSIGNED_CONTEXT((#1902))
GLOBAL_UNIT_ASSIGNED_CONTEXT((#1908,#1906,#1904))
REPRESENTATION_CONTEXT('Part 2','TOP_LEVEL_ASSEMBLY_PART')
);
#1901=(
GEOMETRIC_REPRESENTATION_CONTEXT(3)
GLOBAL_UNCERTAINTY_ASSIGNED_CONTEXT((#1903))
GLOBAL_UNIT_ASSIGNED_CONTEXT((#1909,#1907,#1905))
REPRESENTATION_CONTEXT('Part 1','TOP_LEVEL_ASSEMBLY_PART')
);
#1902=UNCERTAINTY_MEASURE_WITH_UNIT(LENGTH_MEASURE(1.E-8),#1908,
'DISTANCE_ACCURACY_VALUE','Maximum Tolerance applied to model');
#1903=UNCERTAINTY_MEASURE_WITH_UNIT(LENGTH_MEASURE(2.E-5),#1909,
'DISTANCE_ACCURACY_VALUE','Maximum Tolerance applied to model');
#1904=(
NAMED_UNIT(*)
SI_UNIT($,.STERADIAN.)
SOLID_ANGLE_UNIT()
);
#1905=(
NAMED_UNIT(*)
SI_UNIT($,.STERADIAN.)
SOLID_ANGLE_UNIT()
);
#1906=(
NAMED_UNIT(*)
PLANE_ANGLE_UNIT()
SI_UNIT($,.RADIAN.)
);
#1907=(
NAMED_UNIT(*)
PLANE_ANGLE_UNIT()
SI_UNIT($,.RADIAN.)
);
#1908=(
LENGTH_UNIT()
NAMED_UNIT(*)
SI_UNIT($,.METRE.)
);
#1909=(
LENGTH_UNIT()
NAMED_UNIT(*)
SI_UNIT($,.METRE.)
);
#1910=PRODUCT_DEFINITION_SHAPE('','',#1912);
#1911=PRODUCT_DEFINITION_SHAPE('','',#1913);
#1912=PRODUCT_DEFINITION('','',#1916,#1914);
#1913=PRODUCT_DEFINITION('','',#1917,#1915);
#1914=PRODUCT_DEFINITION_CONTEXT('',#1928,'design');
#1915=PRODUCT_DEFINITION_CONTEXT('',#1929,'design');
#1916=PRODUCT_DEFINITION_FORMATION_WITH_SPECIFIED_SOURCE('','',#1920,
 .NOT_KNOWN.);
#1917=PRODUCT_DEFINITION_FORMATION_WITH_SPECIFIED_SOURCE('','',#1921,
 .NOT_KNOWN.);
#1918=PRODUCT_RELATED_PRODUCT_CATEGORY('','',(#1920));
#1919=PRODUCT_RELATED_PRODUCT_CATEGORY('','',(#1921));
#1920=PRODUCT('Part 2','Part 2','Part 2',(#1924));
#1921=PRODUCT('Part 1','Part 1','Part 1',(#1925));
#1922=PRODUCT_CATEGORY('','');
#1923=PRODUCT_CATEGORY('','');
#1924=PRODUCT_CONTEXT('',#1928,'mechanical');
#1925=PRODUCT_CONTEXT('',#1929,'mechanical');
#1926=APPLICATION_PROTOCOL_DEFINITION('international standard',
'ap242_managed_model_based_3d_engineering',2020,#1928);
#1927=APPLICATION_PROTOCOL_DEFINITION('international standard',
'ap242_managed_model_based_3d_engineering',2020,#1929);
#1928=APPLICATION_CONTEXT('managed model based 3d engineering');
#1929=APPLICATION_CONTEXT('managed model based 3d engineering');
ENDSEC;
END-ISO-10303-21;
